<?xml version="1.0" encoding="UTF-8"?>
<!-- Created with Inkscape (http://www.inkscape.org/) -->
<svg width="725.21" height="239.82" version="1.1" viewBox="0 0 725.21 239.82" xmlns="http://www.w3.org/2000/svg">
 <g transform="translate(15.782 -985.75)">
  <path d="m309.22 82.058v13.434h16.47v-13.434zm179.88 0v13.434h16.47v-13.434zm32.296 0v71.584h16.47v-21.484l20.104 21.484h19.966l-27.143-27.879 25.165-23.647h-19.138l-18.954 18.908v-38.966zm-271.48 2.8983v68.686h48.812v-13.388h-31.1v-55.298zm334.87 0v68.686h17.712v-27.051l27.327 27.051h22.175l-36.482-36.16 33.078-32.526h-20.564l-25.533 25.073v-25.073zm-185.68 2.5303v14.63h-8.1889v11.777h8.1889v21.852c0 6.5021 1.3495 11.118 4.0485 13.848 2.7296 2.699 7.3455 4.0485 13.848 4.0485h14.124v-11.777h-8.465c-2.8216 0-4.7079-0.41405-5.6586-1.2421-0.95078-0.85877-1.4262-2.4843-1.4262-4.8766v-21.852h16.976v-11.777h-16.976v-14.63zm-37.816 13.388c-7.7289 0-13.464 1.3188-17.206 3.9564s-5.6126 6.6861-5.6126 12.145c0 5.0606 1.4722 8.833 4.4165 11.317 2.9443 2.4843 8.0816 4.1865 15.412 5.1066l2.8983 0.36804c3.343 0.39871 5.5666 0.96611 6.6708 1.7022 1.1348 0.70541 1.7022 1.7942 1.7022 3.2664 0 1.7482-0.81276 3.067-2.4383 3.9564-1.6255 0.88943-4.0485 1.3341-7.2688 1.3341-3.5577 0-7.0695-0.39871-10.535-1.1961-3.4351-0.79743-6.7934-1.9936-10.075-3.5884v12.513c3.8338 1.0734 7.5602 1.8709 11.179 2.3923 3.6498 0.55206 7.1768 0.82809 10.581 0.82809 8.0356 0 14.078-1.3802 18.126-4.1405s6.0727-6.8854 6.0727-12.375c0-5.2446-1.4568-9.0937-4.3705-11.547-2.9137-2.4536-8.5876-4.2172-17.022-5.2906l-2.8983-0.41405c-2.975-0.33738-5.0452-0.85877-6.2107-1.5642-1.1348-0.70542-1.7022-1.7175-1.7022-3.0364 0-1.6255 0.75142-2.8216 2.2543-3.5884 1.5335-0.79742 3.8644-1.1961 6.9928-1.1961 2.9137 0 6.0114 0.36804 9.2931 1.1041 3.2817 0.73609 6.6861 1.8402 10.213 3.3124v-12.513c-3.9258-0.98144-7.5602-1.7022-10.903-2.1622-3.343-0.46005-6.5327-0.69008-9.5691-0.69008zm114.97 0c-3.8338 0-7.1308 0.78209-9.8911 2.3463-2.7296 1.5335-5.1526 3.9871-7.2688 7.3608v-8.465h-16.47v51.526h16.47v-23.739c0-5.0606 1.1348-8.9404 3.4044-11.639 2.3003-2.7296 5.5666-4.0945 9.7991-4.0945 1.4415 0 2.8677 0.16868 4.2785 0.50605 1.4415 0.3067 2.883 0.79743 4.3245 1.4722l-0.046-14.906c-1.2268-0.15336-2.1622-0.24537-2.8063-0.27603-0.64408-0.0613-1.2421-0.092-1.7942-0.092zm-167.05 1.2422v51.526h16.47v-51.526zm179.88 0v51.526h16.47v-51.526zm165.76 0v31.468c0 6.9621 1.5489 12.268 4.6466 15.918 3.1284 3.6498 7.6675 5.4746 13.618 5.4746 3.343 0 6.3947-0.70541 9.155-2.1162 2.791-1.4415 5.4286-3.6651 7.9129-6.6708v7.4528h16.47v-51.526h-16.47v25.441c0 4.6925-0.98144 8.3576-2.9443 10.995-1.9629 2.6376-4.6619 3.9564-8.0969 3.9564-1.4108 0-2.6683-0.29137-3.7724-0.87411-1.0734-0.58273-1.9475-1.4108-2.6223-2.4843-0.52139-0.82809-0.88944-2.1469-1.1041-3.9564-0.21469-1.8402-0.32206-4.8306-0.32206-8.971 0-1.4108 0.0152-4.2172 0.0461-8.419 0.0309-4.2325 0.0461-7.7442 0.0461-10.535v-5.1526zm-214.71 64.688v23.861h5.49v-2.4843c0.75654 1.0019 1.5948 1.7431 2.515 2.2236 0.9201 0.47028 1.9782 0.70542 3.1744 0.70542 2.1162 0 3.8542-0.83832 5.2139-2.515 1.3597-1.6869 2.0396-3.8542 2.0396-6.5021 0-2.6479-0.67985-4.8101-2.0396-6.4867-1.3597-1.6869-3.0977-2.5303-5.2139-2.5303-1.1961 0-2.2543 0.24025-3.1744 0.72075-0.92011 0.47027-1.7584 1.2064-2.515 2.2082v-9.201zm75.341 0v23.861h5.49v-23.861zm110.93 0.55207c-2.7603 0-4.8766 0.6134-6.3487 1.8402-1.4722 1.2268-2.2082 2.9801-2.2082 5.2599 0 1.8198 0.52655 3.2664 1.5795 4.3398 1.0632 1.0734 2.7398 1.8555 5.0299 2.3463l2.2849 0.50606c1.3904 0.3067 2.3156 0.6543 2.7757 1.0428 0.47026 0.38849 0.70542 0.94055 0.70542 1.6562 0 0.79743-0.34253 1.4108-1.0275 1.8402-0.68495 0.42939-1.6715 0.64408-2.9596 0.64408-1.2677 0-2.5865-0.19424-3.9564-0.58274-1.3597-0.39871-2.7705-0.98655-4.2325-1.7635v4.9839c1.462 0.54184 2.9239 0.95078 4.3858 1.2268 1.462 0.27603 2.9188 0.41405 4.3705 0.41405 3.0772 0 5.3622-0.61341 6.8548-1.8402 1.5028-1.237 2.2542-3.1181 2.2542-5.6433 0-1.922-0.53671-3.4044-1.6102-4.4472-1.0735-1.0428-2.883-1.8198-5.4286-2.3309l-2.515-0.50606c-1.1961-0.24536-2.0242-0.53672-2.4843-0.8741-0.44984-0.34759-0.67474-0.82809-0.67474-1.4415 0-0.81788 0.33737-1.421 1.0121-1.8095 0.67474-0.38849 1.7175-0.58274 3.1284-0.58274 1.0632 0 2.1929 0.14313 3.389 0.42939 1.1961 0.28625 2.4229 0.71052 3.6804 1.2728v-4.8459c-1.421-0.37826-2.7961-0.65941-4.1251-0.84343-1.329-0.19424-2.6223-0.29136-3.8798-0.29136zm-132.14 0.41404v22.895h16.271v-4.4625h-10.367v-5.2446h9.4311v-4.4625h-9.4311v-4.2632h10.029v-4.4625zm72.397 0.84343v4.8766h-2.7296v3.9258h2.7296v7.2842c0 2.1674 0.44984 3.706 1.3495 4.6159 0.9099 0.89966 2.4485 1.3495 4.6159 1.3495h4.7078v-3.9258h-2.8216c-0.94052 0-1.5692-0.13802-1.8862-0.41405-0.31691-0.28625-0.47542-0.82809-0.47542-1.6255v-7.2842h5.6587v-3.9258h-5.6587v-4.8766zm74.697 0v4.8766h-2.7296v3.9258h2.7296v7.2842c0 2.1674 0.44984 3.706 1.3495 4.6159 0.9099 0.89966 2.4485 1.3495 4.6158 1.3495h4.7079v-3.9258h-2.8216c-0.94057 0-1.5693-0.13802-1.8862-0.41405-0.31691-0.28625-0.47537-0.82809-0.47537-1.6255v-7.2842h5.6586v-3.9258h-5.6586v-4.8766zm36.206 0v4.8766h-2.7296v3.9258h2.7296v7.2842c0 2.1674 0.44984 3.706 1.3495 4.6159 0.9099 0.89966 2.4485 1.3495 4.6159 1.3495h4.7078v-3.9258h-2.8216c-0.94052 0-1.5692-0.13802-1.8862-0.41405-0.31691-0.28625-0.47542-0.82809-0.47542-1.6255v-7.2842h5.6587v-3.9258h-5.6587v-4.8766zm-143.09 4.4625c-2.9648 0-5.2957 0.80254-6.9928 2.4076-1.6869 1.6051-2.5303 3.8082-2.5303 6.6094 0 2.8523 0.85876 5.0708 2.5763 6.6554 1.7277 1.5744 4.1456 2.3616 7.2535 2.3616 1.2984 0 2.5968-0.1278 3.8951-0.38338 1.2984-0.24536 2.5968-0.61341 3.8951-1.1041v-4.2325c-1.2779 0.69519-2.5252 1.2166-3.7418 1.5642-1.2063 0.33737-2.3872 0.50606-3.5424 0.50606-1.4312 0-2.5456-0.32204-3.343-0.96611-0.79742-0.64408-1.2625-1.6102-1.3955-2.8983h12.835v-1.5642c0-2.7194-0.81273-4.8919-2.4382-6.5174-1.6153-1.6255-3.7724-2.4383-6.4714-2.4383zm21.668 0c-3.0977 0-5.5206 0.79743-7.2688 2.3923-1.7482 1.5846-2.6223 3.7929-2.6223 6.6248 0 2.8319 0.87407 5.0452 2.6223 6.6401 1.7482 1.5846 4.1712 2.3769 7.2688 2.3769 0.88944 0 1.7738-0.0818 2.653-0.24537 0.88944-0.15335 1.7635-0.38849 2.6223-0.70541v-4.4932c-0.65428 0.50095-1.3699 0.87921-2.1469 1.1348-0.76676 0.25558-1.5795 0.38337-2.4383 0.38337-1.5335 0-2.7296-0.44471-3.5884-1.3342-0.84851-0.89965-1.2728-2.152-1.2728-3.7571s0.42433-2.8523 1.2728-3.7418c0.85876-0.89966 2.0549-1.3495 3.5884-1.3495 0.80768 0 1.5846 0.12268 2.3309 0.36804 0.75654 0.24536 1.5079 0.62363 2.2542 1.1348v-4.4778c-0.86897-0.31693-1.743-0.55207-2.6223-0.70542-0.86897-0.16357-1.7533-0.24536-2.653-0.24536zm36.237 0c-1.2779 0-2.377 0.2607-3.2971 0.78209-0.90989 0.51117-1.7175 1.329-2.4229 2.4536v-2.8216h-5.49v17.175h5.49v-7.9129c0-1.6869 0.3783-2.9801 1.1348-3.8798 0.76675-0.90988 1.8556-1.3648 3.2664-1.3648 0.48052 0 0.95588 0.0562 1.4261 0.16869 0.48052 0.10223 0.96098 0.2658 1.4415 0.49072l-0.0152-4.9686c-0.40892-0.0511-0.72078-0.0818-0.93547-0.092-0.21469-0.0205-0.41402-0.0307-0.59804-0.0307zm12.452 0c-2.9648 0-5.2855 0.79743-6.9621 2.3923-1.6664 1.5948-2.4996 3.8031-2.4996 6.6248 0 2.8216 0.83324 5.0299 2.4996 6.6248 1.6766 1.5948 3.9973 2.3923 6.9621 2.3923 2.9546 0 5.2599-0.79743 6.9161-2.3923 1.6664-1.5948 2.4996-3.8031 2.4996-6.6248 0-2.8217-0.83324-5.0299-2.4996-6.6248-1.6562-1.5948-3.9615-2.3923-6.9161-2.3923zm58.35 0c-1.1859 0-2.3718 0.0767-3.5577 0.23003-1.1859 0.14313-2.3667 0.35782-3.5424 0.64407v4.1865c0.86902-0.47028 1.8095-0.82298 2.8217-1.0581 1.0121-0.23514 2.106-0.35271 3.2817-0.35271 1.4517 0 2.5201 0.20447 3.205 0.6134 0.68495 0.39872 1.0275 1.0326 1.0275 1.9016v0.42939h-3.2357c-2.9648 0-5.1423 0.47027-6.5327 1.4108-1.3802 0.94056-2.0702 2.4178-2.0702 4.4318 0 1.6562 0.55207 3.0057 1.6562 4.0485 1.1144 1.0326 2.5609 1.5488 4.3398 1.5488 1.3188 0 2.4383-0.23514 3.3584-0.70542 0.92011-0.4805 1.7482-1.2421 2.4843-2.2849v2.5456h5.5359v-9.7991c0-2.7501-0.69006-4.7334-2.0702-5.95-1.37-1.2268-3.6038-1.8402-6.7014-1.8402zm35.485 0c-2.5763 0-4.4881 0.4396-5.7353 1.3188-1.2472 0.87921-1.8709 2.2287-1.8709 4.0485 0 1.6869 0.49072 2.9443 1.4722 3.7724 0.98145 0.82809 2.6939 1.3955 5.1373 1.7022l0.96609 0.12268c1.1143 0.13291 1.8556 0.32204 2.2236 0.5674 0.37829 0.23514 0.56737 0.59807 0.56737 1.0888 0 0.58273-0.27088 1.0223-0.81273 1.3188-0.54181 0.29648-1.3495 0.44472-2.423 0.44472-1.1859 0-2.3565-0.13291-3.5118-0.39872-1.145-0.26581-2.2644-0.66452-3.3584-1.1961v4.1711c1.2779 0.35782 2.52 0.62362 3.7264 0.79742 1.2166 0.18402 2.3923 0.27604 3.5271 0.27604 2.6786 0 4.6925-0.46006 6.042-1.3802 1.3495-0.92011 2.0242-2.2952 2.0242-4.1251 0-1.7482-0.48557-3.0312-1.4568-3.8491-0.97119-0.81788-2.8625-1.4057-5.674-1.7635l-0.96614-0.13801c-0.99165-0.11246-1.6817-0.28626-2.0702-0.5214-0.37825-0.23514-0.56742-0.57251-0.56742-1.0121 0-0.54184 0.25051-0.94055 0.75144-1.1961 0.51119-0.26581 1.2882-0.39871 2.3309-0.39871 0.97123 0 2.0038 0.12268 3.0977 0.36804 1.0939 0.24536 2.2287 0.61341 3.4044 1.1041v-4.1711c-1.3086-0.32715-2.5201-0.5674-3.6344-0.72075s-2.1776-0.23003-3.1897-0.23003zm-238.31 0.41405 7.6522 17.835-0.15335 0.47538c-0.23513 0.76676-0.5674 1.2984-0.99678 1.5948-0.41916 0.29648-1.0939 0.44472-2.0242 0.44472h-1.7175v3.6037h3.1744c1.5846 0 2.8574-0.38337 3.8184-1.1501 0.97122-0.75653 1.8198-2.0907 2.5456-4.0024l7.2228-18.801h-5.49l-3.9258 11.655-4.6159-11.655zm74.084 3.2357c0.98144 0 1.7737 0.32204 2.3769 0.96611 0.6134 0.63385 0.9201 1.4722 0.9201 2.515h-7.1308c0.16355-1.1246 0.57758-1.9833 1.2421-2.5763 0.66454-0.60318 1.5284-0.90477 2.5917-0.90477zm70.388 0.27603c1.1961 0 2.1111 0.43961 2.745 1.3188 0.63387 0.86898 0.95077 2.1265 0.95077 3.7724 0 1.646-0.3169 2.9086-0.95077 3.7878-0.63382 0.86899-1.5488 1.3035-2.745 1.3035-1.2166 0-2.1469-0.43449-2.791-1.3035-0.63387-0.87921-0.95077-2.1418-0.95077-3.7878 0-1.646 0.3169-2.9034 0.95077-3.7724 0.64407-0.87921 1.5744-1.3188 2.791-1.3188zm-155.56 0.0613c1.1757 0 2.0702 0.42938 2.6836 1.2882 0.62363 0.85876 0.93544 2.106 0.93544 3.7418s-0.31181 2.883-0.93544 3.7418c-0.6134 0.85876-1.5079 1.2881-2.6836 1.2881-1.1757 0-2.0804-0.42938-2.7143-1.2881-0.62362-0.86899-0.93544-2.1162-0.93544-3.7418s0.31182-2.8677 0.93544-3.7264c0.63386-0.86898 1.5386-1.3035 2.7143-1.3035zm214.29 5.8733h2.8523v0.62874c0 1.1143-0.35273 2.0447-1.0582 2.791-0.70541 0.73608-1.5744 1.1041-2.607 1.1041-0.8281 0-1.4773-0.19425-1.9475-0.58274-0.46006-0.39871-0.69011-0.94566-0.69011-1.6408 0-0.75653 0.28629-1.329 0.85877-1.7175 0.58273-0.38849 1.4466-0.58273 2.5916-0.58273z" stroke-width=".49072"/>
  <g>
   <rect x="125.29" y="290.46" width="725.21" height="239.82" fill="#ff0" stroke-width=".95754"/>
   <path d="m196.23 323.02-52.265 174.7 634.18-0.78877 53.664-173.17zm123.56 31.728 17.986 0.0131-3.9062 12.947-17.983-0.01zm196.44 0.14299 17.986 0.0131-3.9383 12.912-17.983-0.01zm35.269 0.0257 17.986 0.0131-11.44 37.436 26.246-18.156 20.895 0.01-34.422 22.701 21.426 26.772-21.786 5e-3 -15.629-20.635-6.3078 20.64-17.971 4e-3zm-297.31 2.5808 19.342 0.0133-16.037 53.343 33.939-2e-3 -3.888 12.908-53.26 0.0119zm365.69 0.25212 19.342 0.0133-7.3829 24.064 35.266-24.045 22.457 0.0155-45.705 31.186 29.153 34.69-24.195 5e-3 -21.852-25.956-7.9654 25.963-19.326 4e-3zm-203.51 2.2962 17.985 0.0118-4.2714 14.081 18.535 9e-3 -3.4413 11.333-18.532-6e-3 -6.3803 21.033c-0.69848 2.3025-0.65429 3.867 0.13256 4.6935 0.79577 0.79695 2.7333 1.1953 5.8125 1.1951l9.2377-6.2e-4 -3.4411 11.333-15.411 3e-3c-7.0946 2e-3 -11.737-1.2963-13.928-3.8939-2.1486-2.6274-2.2745-7.071-0.37754-13.331l6.3755-21.038-8.9395-3e-3 3.4348-11.34 8.9408 4e-3zm-45.195 12.869c3.3152 2e-3 6.7308 0.22481 10.247 0.66963 3.5159 0.44478 7.274 1.1407 11.274 2.0878l-3.6479 12.05c-3.4211-1.4188-6.8157-2.4832-10.184-3.1933-3.3681-0.71012-6.6426-1.0657-9.8234-1.0668-3.4152-1e-3 -6.0759 0.38212-7.9822 1.1498-1.8638 0.73817-3.0324 1.8903-3.5056 3.4563-0.38396 1.2706-0.0593 2.2458 0.97408 2.9256 1.0668 0.67986 3.1748 1.1826 6.3239 1.5083l3.0431 0.39948c8.8937 1.0357 14.573 2.7352 17.038 5.0986 2.4649 2.3631 2.9327 6.0697 1.4035 11.12-1.6007 5.2864-5.0123 9.259-10.235 11.918-5.222 2.6592-12.217 3.99-20.984 3.9921-3.7146 9e-4 -7.4826-0.2641-11.304-0.79502-3.7971-0.50145-7.631-1.2689-11.502-2.3024l3.6409-12.058c3.1173 1.5366 6.4342 2.6889 9.9506 3.4569 3.5499 0.76794 7.266 1.1517 11.148 1.1513 3.5142-3.3e-4 6.2878-0.42895 8.3208-1.2858 2.033-0.85681 3.3042-2.1271 3.8136-3.8109 0.42893-1.4179 0.12693-2.4666-0.90602-3.1461-0.99058-0.70901-3.2521-1.2556-6.7845-1.6398l-3.056-0.35467c-7.7323-0.88681-12.844-2.5272-15.334-4.9212-2.4908-2.3942-3.0001-6.0296-1.5277-10.906 1.5884-5.2606 4.8088-9.1609 9.6614-11.701 4.8529-2.5396 11.499-3.8072 19.937-3.8032zm125.52 0.06c0.60275 2.9e-4 1.2468 0.0301 1.932 0.0894 0.69423 0.0298 1.6886 0.11878 2.9832 0.26688l-4.3148 14.332c-1.376-0.64923-2.8059-1.1216-4.2897-1.4169-1.4414-0.32488-2.9488-0.48757-4.5224-0.48804-4.6204-1e-3 -8.5855 1.3102-11.895 3.9349-3.2671 2.5954-5.6408 6.3269-7.1213 11.194l-6.9448 22.833-17.971 4e-3 15.063-49.573 17.982 8e-3 -2.4764 8.1421c3.2974-3.2441 6.6606-5.6029 10.09-7.0765 3.4715-1.5029 7.3002-2.2534 11.486-2.2514zm-182.75 1.1103 17.982 8e-3 -14.982 49.66-17.971 4e-3zm196.4 0.0906 17.982 8e-3 -15.106 49.526-17.971 4e-3zm180.98 0.0835 18.082 8e-3 -1.5219 4.9402c-0.82438 2.6759-1.8782 6.0429-3.1621 10.101-1.2748 4.0286-2.1203 6.7192-2.537 8.0719-1.223 3.9698-1.989 6.8368-2.2983 8.6012-0.3002 1.7349-0.28809 2.9994 0.0363 3.7933 0.41928 1.0291 1.1285 1.823 2.1278 2.3816 1.0328 0.55859 2.3189 0.83782 3.8585 0.83771 3.7486-2.9e-4 7.0837-1.2647 10.005-3.7931 2.9218-2.5283 5.0764-6.0412 6.4637-10.539l7.5209-24.385 17.982 8e-3 -15.243 49.375-17.971 4e-3 2.2032-7.1436c-3.5994 2.8814-7.1347 5.0133-10.606 6.3958-3.4288 1.3532-6.9669 2.0302-10.614 2.0311-6.4921 2e-3 -10.906-1.7471-13.242-5.2463-2.3028-3.4995-2.4269-8.5878-0.37202-15.265zm-253.33 62.13 5.9893-2e-3 -2.6901 8.8519c1.1182-0.96429 2.2479-1.6729 3.3891-2.1258 1.1442-0.46273 2.3687-0.6944 3.6736-0.69503 2.3085-1e-3 3.9577 0.80927 4.9476 2.4311 0.99275 1.6119 1.1018 3.6913 0.32717 6.2382-0.77461 2.5469-2.1502 4.6321-4.1266 6.2556-1.9734 1.6138-4.1141 2.4216-6.4221 2.4232-1.3045 9.5e-4 -2.3898-0.22443-3.2558-0.67612-0.86301-0.46154-1.5606-1.1739-2.0928-2.1372l-0.72633 2.39-5.9875 4e-3zm82.194-0.0328 5.9893-2e-3 -7.0003 22.93-5.9875 4e-3zm120.86 0.48136c1.3718-5.6e-4 2.7541 0.0921 4.1467 0.27781 1.3956 0.17594 2.8128 0.44503 4.2516 0.80726l-1.429 4.6487c-1.206-0.53874-2.4192-0.94513-3.6396-1.2191-1.2204-0.27402-2.4105-0.41076-3.5704-0.41022-1.5391 7.1e-4 -2.7339 0.1876-3.5844 0.56069-0.85059 0.37309-1.3964 0.952-1.6374 1.7367-0.18079 0.58854-0.0771 1.0494 0.31119 1.3827 0.40238 0.32343 1.2198 0.60251 2.4522 0.83723l2.5942 0.48406c2.6261 0.48891 4.3709 1.2332 5.2343 2.2329 0.86341 0.99968 1.0117 2.4214 0.44488 4.2651-0.74468 2.4224-2.1189 4.2274-4.1228 5.4153-1.9896 1.1781-4.6625 1.7683-8.0186 1.7708-1.5833 1e-3 -3.1314-0.13014-4.6445-0.39384-1.5131-0.26371-2.987-0.65495-4.4218-1.1737l1.4686-4.7823c1.3656 0.74453 2.7312 1.3076 4.0967 1.6892 1.3797 0.37175 2.7609 0.55717 4.1435 0.55625 1.405-9.4e-4 2.5442-0.20763 3.4179-0.62007 0.87368-0.41242 1.4281-1.0012 1.6632-1.7662 0.21098-0.68656 0.11722-1.216-0.28115-1.5884-0.38729-0.3724-1.294-0.70528-2.7201-0.99862l-2.3431-0.48406c-2.3533-0.46936-3.9516-1.2187-4.795-2.2481-0.83225-1.0294-0.98035-2.4172-0.44414-4.1633 0.67177-2.1876 1.9914-3.8704 3.9589-5.0482 1.9676-1.1778 4.457-1.7673 7.4684-1.7685zm-144.28 0.45664 17.382-7e-3 -1.3085 4.289-10.941 5e-3 -1.2495 4.098 10.288-5e-3 -1.3085 4.289-10.287 6e-3 -1.5372 5.0414 11.307-7e-3 -1.3086 4.289-17.745 0.0127zm78.733 0.7774 5.9892-3e-3 -1.434 4.6825 6.1728-3e-3 -1.1547 3.7693-6.1725 3e-3 -2.1419 6.9944c-0.23449 0.7657-0.22093 1.2859 0.0405 1.5605 0.26455 0.26482 0.90966 0.39689 1.9355 0.39621l3.0775-2e-3 -1.1546 3.7693-5.1346 4e-3c-2.3638 2e-3 -3.9096-0.42905-4.6375-1.2923-0.71371-0.87307-0.75201-2.3503-0.11485-4.4316l2.1414-6.9949-2.9775 2e-3 1.154-3.7701 2.9777-1e-3zm81.489-0.0345 5.9891-3e-3 -1.4388 4.6772 6.1728-3e-3 -1.1586 3.765-6.1725 3e-3 -2.1492 6.9864c-0.23528 0.76484-0.22232 1.2844 0.0389 1.5588 0.26417 0.26452 0.90926 0.39644 1.9351 0.39576l3.0775-2e-3 -1.1586 3.765-5.1346 4e-3c-2.3638 2e-3 -3.9092-0.42856-4.6361-1.2908-0.7128-0.87208-0.74955-2.3476-0.11024-4.4266l2.1486-6.987-2.9775 2e-3 1.1578-3.7658 2.9777-1e-3zm39.498-0.0167 5.9891-3e-3 -1.4412 4.6747 6.1728-3e-3 -1.1605 3.7629-6.1725 3e-3 -2.1527 6.9826c-0.23566 0.76442-0.22291 1.2837 0.0381 1.5579 0.26413 0.26437 0.9091 0.39622 1.9349 0.39554l3.0775-2e-3 -1.1604 3.763-5.1346 4e-3c-2.3638 2e-3 -3.9089-0.42833-4.6355-1.2901-0.71236-0.8716-0.74837-2.3463-0.10802-4.4241l2.1521-6.9832-2.9775 2e-3 1.1598-3.7637 2.9777-1e-3zm-157.41 4.3535c2.9442-1e-3 5.0587 0.77825 6.3435 2.339 1.2958 1.5606 1.5444 3.6471 0.74578 6.2595l-0.45935 1.5026-14 9e-3c-0.23308 1.2376-9e-3 2.1655 0.67138 2.7838 0.6807 0.61823 1.8016 0.92682 3.3626 0.92577 1.26-8.5e-4 2.5974-0.16378 4.0122-0.48877 1.429-0.33481 2.9425-0.8366 4.5404-1.5053l-1.2429 4.0659c-1.5601 0.47241-3.0842 0.82699-4.5724 1.0637-1.4911 0.24656-2.9446 0.37036-4.3607 0.37139-3.3896 2e-3 -5.7955-0.75202-7.2178-2.2635-1.4083-1.5214-1.6939-3.6525-0.85699-6.3932 0.82194-2.6917 2.3884-4.8092 4.6995-6.3524 2.3223-1.5432 5.1006-2.3155 8.3348-2.3171zm23.637-0.0114c0.98146-4.7e-4 1.9221 0.0776 2.822 0.23425 0.91404 0.14681 1.7984 0.37217 2.6532 0.67606l-1.3161 4.3004c-0.66382-0.49046-1.3723-0.8533-2.1254-1.0885-0.74196-0.23521-1.5534-0.35258-2.4345-0.35211-1.6728 8.9e-4 -3.1097 0.43365-4.3108 1.2983-1.1868 0.85481-2.0161 2.0531-2.4876 3.5948-0.47155 1.5417-0.37668 2.7443 0.28447 3.6078 0.67533 0.85368 1.8493 1.2799 3.5218 1.2788 0.93663-6.3e-4 1.8606-0.12395 2.772-0.36997 0.92256-0.24603 1.8142-0.60983 2.6751-1.0914l-1.3206 4.3151c-1.0298 0.30504-2.0522 0.53155-3.0673 0.67953-1.007 0.15778-1.9955 0.23704-2.9655 0.23774-3.3784 2e-3 -5.7882-0.75669-7.2294-2.2774-1.4382-1.5307-1.7415-3.6562-0.90979-6.3764 0.83175-2.7203 2.4338-4.842 4.8062-6.3652 2.3755-1.5329 5.2529-2.3001 8.632-2.3017zm39.53-0.0191c0.20074-1e-4 0.41512 0.01 0.64334 0.0291 0.23113 0.01 0.56238 0.039 0.99337 0.0879l-1.4459 4.7693c-0.45792-0.2156-0.93389-0.37234-1.428-0.47018-0.47984-0.10768-0.98184-0.16137-1.506-0.16109-1.539 8.4e-4 -2.8605 0.43821-3.9646 1.3122-1.09 0.86413-1.8831 2.1059-2.3795 3.7253l-2.3283 7.5964-5.9875 4e-3 5.0525-16.49 5.9888-3e-3 -0.83027 2.7088c1.1004-1.08 2.2221-1.8656 3.3651-2.3568 1.1571-0.501 2.4328-0.75184 3.8268-0.75251zm13.584-7e-3c3.223-2e-3 5.503 0.76249 6.8398 2.2921 1.3479 1.5295 1.6063 3.6481 0.77499 6.3557-0.8313 2.7077-2.3907 4.8273-4.678 6.359-2.2761 1.5318-5.0253 2.2988-8.2476 2.3012-3.2335 2e-3 -5.5297-0.76122-6.8888-2.2907-1.348-1.5296-1.6068-3.6486-0.7762-6.3571 0.83059-2.7084 2.3896-4.8286 4.6768-6.3604 2.2985-1.5317 5.0648-2.2983 8.299-2.2999zm63.652-0.0307c3.3792-2e-3 5.6348 0.58533 6.7668 1.7608 1.1462 1.1657 1.3131 3.0668 0.5008 5.7035l-2.8945 9.395-6.0377 4e-3 0.75174-2.4408c-1.1108 1.0004-2.2388 1.7314-3.3842 2.1928-1.1424 0.45166-2.4327 0.67802-3.8711 0.67906-1.94 1e-3 -3.3653-0.49256-4.276-1.4819-0.89643-0.9992-1.1002-2.293-0.61142-3.8813 0.59443-1.9315 1.7831-3.3486 3.5662-4.2515 1.7942-0.90286 4.3083-1.3552 7.5422-1.357l3.5294-2e-3 0.1268-0.41172c0.25662-0.83322 0.0702-1.4408-0.5592-1.8227-0.62641-0.39171-1.7314-0.58715-3.315-0.58631-1.2824 6.8e-4 -2.5104 0.11406-3.6839 0.34013-1.1734 0.22608-2.3035 0.56488-3.3902 1.0164l1.2357-4.0148c1.367-0.27514 2.7185-0.48165 4.0543-0.61954 1.339-0.14768 2.6553-0.22183 3.949-0.22245zm38.71-0.0187c1.104-5.3e-4 2.2412 0.0724 3.4115 0.21876 1.1702 0.14637 2.4208 0.37596 3.7515 0.68875l-1.2339 3.9971c-1.1372-0.46956-2.2663-0.82159-3.3869-1.0561-1.1206-0.2345-2.2107-0.35147-3.2702-0.35091-1.1374 6e-4 -2.0243 0.12843-2.6605 0.38348-0.62196 0.24525-1.0132 0.62752-1.1734 1.1468-0.12999 0.42131-0.0234 0.74454 0.31965 0.96967 0.35429 0.22511 1.0556 0.39125 2.104 0.49841l1.013 0.13166c2.9609 0.34115 4.85 0.90328 5.6674 1.6864 0.81746 0.78311 0.96748 2.0123 0.45029 3.6875-0.54138 1.7536-1.684 3.0718-3.4281 3.9545-1.744 0.88278-4.0765 1.3252-6.9979 1.3274-1.2376 9e-4 -2.4927-0.0864-3.7651-0.26177-1.2643-0.16564-2.5404-0.41944-3.8284-0.7614l1.2331-3.998c1.036 0.50876 2.139 0.89009 3.3093 1.144 1.1814 0.25391 2.4188 0.38043 3.7123 0.37956 1.1708-7.9e-4 2.0955-0.14345 2.7742-0.42798 0.67868-0.28452 1.1042-0.70601 1.2765-1.2645 0.14514-0.47028 0.0463-0.81795-0.2968-1.043-0.32886-0.23488-1.0814-0.41563-2.2576-0.54224l-1.0174-0.11691c-2.5743-0.29227-4.2744-0.83493-5.1001-1.628-0.82572-0.79308-0.98919-1.998-0.4905-3.6149 0.53799-1.7442 1.6172-3.038 3.2377-3.8814 1.6206-0.84335 3.836-1.2657 6.6464-1.267zm-260.08 0.52373 5.9888-3e-3 1.6239 11.206 7.6938-11.21 5.9888-3e-3 -13.383 18.084c-1.3512 1.8391-2.6672 3.1228-3.9478 3.8512-1.2724 0.73821-2.7727 1.108-4.5008 1.1094l-3.4618 3e-3 1.0545-3.4661 1.8731-1e-3c1.0146-7.7e-4 1.7939-0.1439 2.3378-0.42938 0.55504-0.28548 1.073-0.79703 1.5538-1.5346l0.30638-0.45731zm79.865 3.0693c-1.1598 6.2e-4 -2.1906 0.29088-3.0926 0.8708-0.89892 0.57012-1.6026 1.3955-2.1111 2.4761l7.7781-4e-3c0.30616-1.0018 0.21774-1.807-0.26527-2.4156-0.46889-0.61842-1.2386-0.92736-2.3092-0.92679zm76.699 0.22413c-1.3271 7.1e-4 -2.4714 0.42317-3.4328 1.2674-0.94732 0.83442-1.6632 2.0415-2.1478 3.6213-0.48464 1.5798-0.51077 2.7914-0.0783 3.6348 0.44658 0.83356 1.3334 1.2499 2.6602 1.249 1.3046-8.8e-4 2.4306-0.41854 3.3778-1.253 0.95034-0.84424 1.6678-2.0561 2.1526-3.6358 0.4848-1.5796 0.50953-2.7862 0.074-3.6198-0.43241-0.84341-1.301-1.2648-2.6058-1.2641zm-169.7 0.14981c-1.2825 6.9e-4 -2.3964 0.4192-3.3419 1.2556-0.93133 0.82655-1.6346 2.0218-2.1099 3.5856-0.47525 1.5638-0.49982 2.7635-0.0737 3.5991 0.44025 0.8257 1.3015 1.2381 2.5838 1.2373 1.2823-8.6e-4 2.3835-0.41457 3.3037-1.2411 0.93135-0.82654 1.6362-2.0266 2.1146-3.6 0.4784-1.5735 0.50307-2.7731 0.074-3.5988-0.41796-0.82573-1.2682-1.2383-2.5506-1.2376zm232.02 5.5066c-1.2489 7.7e-4 -2.2486 0.18762-2.9989 0.56054-0.7391 0.37293-1.2204 0.92211-1.4437 1.6476-0.20523 0.66664-0.1158 1.191 0.26829 1.573 0.39817 0.37219 1.0489 0.55797 1.952 0.55736 1.1262-7.6e-4 2.1827-0.3543 3.1694-1.0606 0.98972-0.71609 1.6492-1.6084 1.9783-2.6769l0.18567-0.60287z" fill="#0e0e0e" stroke-width=".4085"/>
   <path d="m430.61 429.67-109.24 15.201 81.912 29.63-233.38 3e-3 153.85-12.68-88.9-33.2z" fill="#ff0"/>
   <rect x="-15.782" y="985.75" width="725.21" height="239.82" fill="#131722" stroke-width=".95754"/>
   <path d="m55.163 1018.3-52.265 174.7 634.18-0.7888 53.664-173.17zm123.56 31.728 17.986 0.013-3.9062 12.947-17.983-0.01zm196.44 0.143 17.986 0.013-3.9383 12.912-17.983-0.01zm35.269 0.026 17.986 0.013-11.44 37.436 26.246-18.156 20.895 0.01-34.422 22.701 21.426 26.772h-21.786l-15.629-20.635-6.3078 20.64h-17.971zm-297.31 2.5808 19.342 0.013-16.037 53.343h33.939l-3.888 12.908-53.26 0.012zm365.69 0.2521 19.342 0.013-7.3829 24.064 35.266-24.045 22.457 0.015-45.705 31.186 29.153 34.69-24.195 0.01-21.852-25.956-7.9654 25.963h-19.326zm-203.51 2.2962 17.985 0.012-4.2715 14.081 18.535 0.01-3.4413 11.333-18.532-0.01-6.3803 21.033c-0.6985 2.3026-0.6543 3.867 0.13256 4.6935 0.79576 0.797 2.7332 1.1954 5.8125 1.1951l9.2377-6e-4 -3.4411 11.333h-15.411c-7.0946 0-11.737-1.2964-13.928-3.894-2.1487-2.6273-2.2746-7.0709-0.37754-13.331l6.3755-21.038h-8.9395l3.4348-11.34h8.9408zm-45.195 12.869c3.3152 0 6.7308 0.2248 10.247 0.6697 3.5159 0.4447 7.274 1.1407 11.274 2.0878l-3.6479 12.05c-3.4211-1.4188-6.8157-2.4833-10.184-3.1933-3.3681-0.7101-6.6426-1.0657-9.8234-1.0668-3.4152-0-6.0759 0.3821-7.9822 1.1498-1.8638 0.7382-3.0324 1.8903-3.5056 3.4563-0.38397 1.2705-0.0593 2.2458 0.97406 2.9256 1.0668 0.6799 3.1748 1.1826 6.3239 1.5083l3.0431 0.3994c8.8937 1.0358 14.573 2.7353 17.038 5.0986 2.4649 2.3631 2.9326 6.0697 1.4035 11.12-1.6007 5.2864-5.0123 9.259-10.235 11.918-5.222 2.6592-12.217 3.99-20.984 3.9921-3.7146 9e-4 -7.4826-0.2641-11.304-0.7951-3.7971-0.5013-7.631-1.2688-11.502-2.3023l3.6409-12.058c3.1173 1.5367 6.4341 2.6889 9.9507 3.4569 3.5499 0.7679 7.266 1.1517 11.148 1.1514 3.5142-4e-4 6.2878-0.429 8.3208-1.2858 2.033-0.8569 3.3042-2.1271 3.8136-3.8109 0.42893-1.4179 0.12692-2.4666-0.906-3.1462-0.99058-0.709-3.2521-1.2556-6.7845-1.6397l-3.056-0.3547c-7.7323-0.8868-12.844-2.5272-15.334-4.9211-2.4908-2.3942-3.0001-6.0296-1.5277-10.906 1.5884-5.2606 4.8088-9.161 9.6614-11.701 4.8529-2.5396 11.499-3.8072 19.937-3.8032zm125.52 0.06c0.60276 3e-4 1.2466 0.031 1.9319 0.09 0.69409 0.03 1.6886 0.1189 2.9832 0.2669l-4.3148 14.332c-1.376-0.6493-2.8059-1.1216-4.2897-1.4169-1.4413-0.3249-2.9488-0.4876-4.5224-0.4881-4.6204-0-8.5855 1.3102-11.895 3.9349-3.2671 2.5953-5.6408 6.3269-7.1213 11.194l-6.9447 22.833h-17.971l15.063-49.573 17.982 0.01-2.4764 8.1422c3.2974-3.2442 6.6606-5.603 10.09-7.0766 3.4715-1.5029 7.3002-2.2533 11.486-2.2513zm-182.75 1.1103 17.982 0.01-14.982 49.66h-17.971zm196.4 0.091 17.982 0.01-15.106 49.526h-17.971zm180.98 0.083 18.082 0.01-1.5219 4.9401c-0.82436 2.6759-1.8782 6.0429-3.1621 10.101-1.2748 4.0286-2.1203 6.7192-2.537 8.072-1.223 3.9697-1.989 6.8368-2.2983 8.6012-0.30018 1.7348-0.28809 2.9993 0.0363 3.7932 0.41926 1.0292 1.1285 1.8231 2.1278 2.3816 1.0328 0.5586 2.3189 0.8378 3.8585 0.8377 3.7486-3e-4 7.0837-1.2646 10.005-3.7931 2.9218-2.5282 5.0764-6.0411 6.4636-10.539l7.5209-24.385 17.982 0.01-15.243 49.375h-17.971l2.2032-7.1436c-3.5994 2.8814-7.1347 5.0134-10.606 6.3958-3.4287 1.3532-6.9669 2.0302-10.614 2.0311-6.4921 0-10.906-1.7471-13.242-5.2463-2.3028-3.4995-2.4269-8.5878-0.37203-15.264zm-253.33 62.13h5.9893l-2.6901 8.8519c1.1182-0.9643 2.2479-1.6729 3.3891-2.1258 1.1442-0.4627 2.3687-0.6944 3.6736-0.6951 2.3085-0 3.9577 0.8093 4.9475 2.4313 0.99278 1.6118 1.1018 3.6912 0.32718 6.2381-0.7746 2.5469-2.1501 4.6321-4.1266 6.2556-1.9734 1.6139-4.1141 2.4216-6.4221 2.4233-1.3045 9e-4 -2.3898-0.2245-3.2558-0.6761-0.86299-0.4616-1.5606-1.174-2.0928-2.1373l-0.72634 2.39h-5.9875zm82.194-0.033h5.9893l-7.0003 22.93h-5.9875zm120.86 0.4814c1.3718-6e-4 2.7542 0.092 4.1467 0.2778 1.3956 0.176 2.8128 0.445 4.2516 0.8073l-1.429 4.6487c-1.2059-0.5388-2.4192-0.9451-3.6396-1.2191-1.2204-0.2741-2.4105-0.4109-3.5704-0.4103-1.5391 7e-4 -2.7339 0.1876-3.5844 0.5607-0.85058 0.3731-1.3964 0.952-1.6375 1.7368-0.18078 0.5885-0.0771 1.0494 0.3112 1.3827 0.40239 0.3233 1.2198 0.6025 2.4522 0.8372l2.5942 0.484c2.6261 0.489 4.3709 1.2333 5.2343 2.233 0.86343 0.9996 1.0117 2.4214 0.4449 4.265-0.74471 2.4225-2.1189 4.2275-4.1228 5.4153-1.9897 1.1782-4.6625 1.7684-8.0186 1.7708-1.5833 0-3.1314-0.1301-4.6445-0.3938-1.5131-0.2637-2.987-0.6549-4.4218-1.1738l1.4686-4.7822c1.3656 0.7445 2.7312 1.3075 4.0967 1.6891 1.3797 0.3717 2.7608 0.5572 4.1435 0.5563 1.405-1e-3 2.5442-0.2076 3.4179-0.6201 0.8737-0.4125 1.4281-1.0011 1.6632-1.7662 0.21097-0.6865 0.11721-1.216-0.28116-1.5884-0.38729-0.3724-1.294-0.7053-2.7201-0.9986l-2.3432-0.484c-2.3533-0.4694-3.9516-1.2188-4.795-2.2481-0.83223-1.0294-0.98034-2.4172-0.44413-4.1634 0.67177-2.1875 1.9914-3.8703 3.9589-5.0482 1.9676-1.1778 4.457-1.7673 7.4684-1.7685zm-144.28 0.4566 17.382-0.01-1.3085 4.2889-10.941 0.01-1.2495 4.098 10.288-0.01-1.3085 4.289-10.287 0.01-1.5372 5.0415 11.307-0.01-1.3086 4.2889-17.745 0.013zm78.733 0.7774h5.9892l-1.434 4.6825h6.1728l-1.1547 3.7693h-6.1725l-2.1419 6.9944c-0.23449 0.7657-0.22092 1.2858 0.0405 1.5604 0.26455 0.2649 0.90966 0.3969 1.9355 0.3963h3.0775l-1.1547 3.7693h-5.1345c-2.3638 0-3.9096-0.4291-4.6375-1.2922-0.71371-0.8731-0.75201-2.3503-0.11485-4.4316l2.1414-6.995h-2.9775l1.154-3.77h2.9777zm81.489-0.035h5.9891l-1.4388 4.6772h6.1728l-1.1586 3.765h-6.1725l-2.1492 6.9864c-0.23529 0.7649-0.22231 1.2844 0.0389 1.5587 0.26416 0.2646 0.90925 0.3965 1.9351 0.3958h3.0775l-1.1586 3.765h-5.1345c-2.3638 0-3.9092-0.4286-4.6362-1.2908-0.71281-0.8721-0.74956-2.3476-0.11024-4.4266l2.1486-6.987h-2.9775l1.1579-3.7658h2.9777zm39.498-0.017h5.9891l-1.4412 4.6746h6.1728l-1.1605 3.763h-6.1725l-2.1527 6.9827c-0.23567 0.7644-0.2229 1.2836 0.0381 1.5578 0.26413 0.2644 0.9091 0.3962 1.9349 0.3956h3.0775l-1.1604 3.763h-5.1346c-2.3638 0-3.9089-0.4284-4.6355-1.2901-0.71237-0.8716-0.74837-2.3463-0.10801-4.4241l2.1521-6.9833h-2.9775l1.1597-3.7638h2.9777zm-157.41 4.3535c2.9442-0 5.0587 0.7783 6.3435 2.339 1.2958 1.5606 1.5444 3.647 0.74578 6.2594l-0.45936 1.5027-14 0.01c-0.23306 1.2375-9e-3 2.1655 0.67141 2.7837 0.68067 0.6183 1.8016 0.9269 3.3626 0.9258 1.26-9e-4 2.5974-0.1638 4.0122-0.4888 1.429-0.3348 2.9425-0.8365 4.5404-1.5053l-1.2429 4.0659c-1.5601 0.4724-3.0842 0.827-4.5724 1.0637-1.491 0.2465-2.9446 0.3704-4.3607 0.3714-3.3896 0-5.7955-0.752-7.2178-2.2634-1.4082-1.5215-1.6939-3.6525-0.85698-6.3933 0.82194-2.6917 2.3884-4.8092 4.6995-6.3524 2.3223-1.5432 5.1006-2.3156 8.3348-2.3171zm23.637-0.011c0.98145-4e-4 1.922 0.078 2.8219 0.2343 0.91403 0.1469 1.7984 0.3723 2.6532 0.6762l-1.3161 4.3003c-0.66383-0.4904-1.3723-0.8533-2.1254-1.0885-0.74196-0.2352-1.5534-0.3526-2.4344-0.3522-1.6728 9e-4 -3.1097 0.4337-4.3108 1.2984-1.1868 0.8547-2.0161 2.053-2.4877 3.5947-0.47155 1.5417-0.37666 2.7443 0.28448 3.6078 0.67534 0.8537 1.8493 1.28 3.5218 1.2788 0.93663-6e-4 1.8607-0.124 2.772-0.37 0.92256-0.246 1.8142-0.6098 2.6751-1.0913l-1.3206 4.3151c-1.0297 0.305-2.0522 0.5316-3.0673 0.6795-1.007 0.1578-1.9955 0.237-2.9655 0.2377-3.3784 0-5.7882-0.7567-7.2294-2.2774-1.4383-1.5306-1.7416-3.6561-0.9098-6.3764 0.83175-2.7203 2.4338-4.842 4.8062-6.3651 2.3755-1.533 5.2529-2.3002 8.6321-2.3019zm39.53-0.019c0.20075-1e-4 0.41512 0.01 0.64319 0.03 0.23113 0.01 0.56247 0.039 0.99352 0.087l-1.4459 4.7693c-0.45793-0.2156-0.93389-0.3723-1.428-0.4702-0.47984-0.1076-0.98183-0.1614-1.5059-0.1611-1.539 8e-4 -2.8605 0.4382-3.9646 1.3122-1.09 0.8641-1.8831 2.1059-2.3795 3.7253l-2.3284 7.5964h-5.9875l5.0525-16.49h5.9888l-0.83025 2.7087c1.1004-1.0799 2.2221-1.8655 3.3651-2.3567 1.1572-0.5011 2.4328-0.7519 3.8268-0.7525zm13.584-0.01c3.223-0 5.503 0.7625 6.8398 2.2922 1.3479 1.5294 1.6063 3.648 0.77498 6.3557-0.83128 2.7076-2.3907 4.8273-4.678 6.359-2.2761 1.5317-5.0253 2.2988-8.2476 2.3011-3.2335 0-5.5297-0.7612-6.8888-2.2906-1.348-1.5297-1.6068-3.6487-0.77619-6.3571 0.8306-2.7085 2.3896-4.8286 4.6768-6.3604 2.2985-1.5317 5.0649-2.2983 8.2991-2.2999zm63.652-0.031c3.3792-0 5.6348 0.5854 6.7668 1.7609 1.1462 1.1657 1.3131 3.0668 0.50079 5.7035l-2.8944 9.395h-6.0377l0.75172-2.4408c-1.1107 1.0004-2.2388 1.7314-3.3842 2.1929-1.1423 0.4516-2.4327 0.678-3.8711 0.679-1.94 0-3.3653-0.4926-4.276-1.4819-0.89642-0.9992-1.1002-2.2929-0.6114-3.8813 0.59442-1.9314 1.7831-3.3486 3.5662-4.2515 1.7942-0.9029 4.3083-1.3552 7.5422-1.357h3.5294l0.12682-0.4118c0.25659-0.8332 0.0702-1.4408-0.55922-1.8227-0.62639-0.3917-1.7314-0.5871-3.315-0.5862-1.2824 6e-4 -2.5104 0.114-3.6839 0.3401-1.1734 0.226-2.3035 0.5648-3.3902 1.0164l1.2357-4.0149c1.367-0.2751 2.7185-0.4816 4.0543-0.6195 1.339-0.1477 2.6553-0.2219 3.949-0.2225zm38.71-0.019c1.104-5e-4 2.2412 0.073 3.4114 0.2188 1.1702 0.1463 2.4208 0.3759 3.7514 0.6888l-1.2339 3.9971c-1.1373-0.4695-2.2662-0.8216-3.3869-1.0561-1.1207-0.2345-2.2107-0.3514-3.2702-0.3509-1.1375 6e-4 -2.0244 0.1284-2.6606 0.3835-0.62192 0.2452-1.0131 0.6275-1.1733 1.1468-0.13 0.4214-0.0234 0.7445 0.31957 0.9697 0.35433 0.2251 1.0556 0.3913 2.104 0.4984l1.013 0.1317c2.9608 0.3411 4.85 0.9033 5.6674 1.6864 0.81743 0.783 0.96748 2.0122 0.45028 3.6875-0.54137 1.7536-1.684 3.0717-3.4281 3.9545-1.7439 0.8828-4.0765 1.3252-6.9978 1.3273-1.2376 9e-4 -2.4925-0.087-3.7651-0.2618-1.2643-0.1656-2.5404-0.4193-3.8284-0.7614l1.2331-3.9979c1.0359 0.5088 2.139 0.8901 3.3093 1.144 1.1814 0.2539 2.4188 0.3805 3.7122 0.3796 1.1708-8e-4 2.0956-0.1434 2.7742-0.428 0.67866-0.2845 1.1042-0.706 1.2765-1.2644 0.14514-0.4703 0.0463-0.818-0.29676-1.0431-0.32892-0.2349-1.0814-0.4156-2.2576-0.5423l-1.0174-0.1168c-2.5743-0.2923-4.2744-0.835-5.1001-1.6281-0.82574-0.793-0.98921-1.9979-0.49052-3.6147 0.53799-1.7443 1.6172-3.0381 3.2377-3.8815 1.6206-0.8434 3.836-1.2657 6.6465-1.2671zm-260.08 0.5237h5.9888l1.6239 11.206 7.6938-11.21h5.9888l-13.383 18.084c-1.3512 1.839-2.6672 3.1228-3.9478 3.8512-1.2724 0.7382-2.7727 1.108-4.5008 1.1094h-3.4618l1.0545-3.466h1.8731c1.0146-7e-4 1.7939-0.1438 2.3378-0.4294 0.55503-0.2854 1.073-0.7969 1.5538-1.5346l0.3064-0.4573zm79.865 3.0694c-1.1598 6e-4 -2.1906 0.2908-3.0925 0.8707-0.89892 0.5701-1.6026 1.3956-2.1111 2.4762h7.7781c0.30617-1.0019 0.21775-1.8071-0.26526-2.4157-0.4689-0.6184-1.2386-0.9273-2.3092-0.9267zm76.699 0.224c-1.327 7e-4 -2.4714 0.4233-3.4328 1.2675-0.94733 0.8344-1.6632 2.0415-2.1479 3.6213-0.48463 1.5798-0.51077 2.7914-0.0783 3.6348 0.44657 0.8336 1.3334 1.2499 2.6602 1.249 1.3046-9e-4 2.4306-0.4185 3.3778-1.2529 0.95033-0.8442 1.6678-2.0561 2.1526-3.6358 0.4848-1.5796 0.50953-2.7862 0.074-3.6198-0.43241-0.8434-1.301-1.2648-2.6058-1.2641zm-169.7 0.1498c-1.2825 7e-4 -2.3965 0.4193-3.342 1.2557-0.93132 0.8265-1.6346 2.0218-2.1099 3.5856s-0.49983 2.7635-0.0737 3.5991c0.44026 0.8256 1.3015 1.238 2.5838 1.2372 1.2823-9e-4 2.3835-0.4146 3.3037-1.2411 0.93137-0.8265 1.6362-2.0265 2.1146-3.6 0.47842-1.5735 0.50306-2.7731 0.074-3.5988-0.41797-0.8257-1.2682-1.2383-2.5506-1.2377zm232.02 5.5067c-1.2489 8e-4 -2.2486 0.1877-2.9989 0.5606-0.73909 0.3729-1.2203 0.9221-1.4437 1.6476-0.20521 0.6665-0.1158 1.1909 0.2683 1.5729 0.39815 0.3722 1.0489 0.558 1.952 0.5574 1.1262-8e-4 2.1827-0.3543 3.1694-1.0606 0.98974-0.7162 1.6492-1.6084 1.9783-2.6769l0.18567-0.6029z" fill="#fbd400" stroke-width=".4085"/>
   <path d="m289.54 1125-109.24 15.201 81.912 29.63h-233.38l153.85-12.68-88.9-33.2z" fill="#131722"/>
   <rect x="100.34" y="568.34" width="381.34" height="381.34" ry="76.102" fill="#ff0"/>
   <path d="m182.13 577.81c-40.068 0-72.326 32.256-72.326 72.324v217.76c0 40.068 32.258 72.324 72.326 72.324h217.76c40.068 0 72.324-32.256 72.324-72.324v-217.76c0-40.068-32.256-72.324-72.324-72.324zm197 56.578-27.109 78.838 47.984-45.084-79.807 157.32 44.062-108.04-52.781 48.574zm-138.2 22.867h66.004l-44.615 180.66h120.11l-10.227 45.729h-190.18z"/>
  </g>
  <g fill="#0ff">
   <g transform="translate(379.05 104.63)" stroke-width="4.2795" aria-label="L">
    <path d="m796.5 605.39h86.195l-58.984 239h156.85l-13.538 60.498h-248.36z"/>
   </g>
   <path d="m1362.2 682.13-35.865 104.3 63.482-59.645-105.58 208.13 58.293-142.94-69.827 64.262z"/>
   <path d="m1271 289.74-27.11 78.838 47.984-45.084-79.807 157.32 44.062-108.04-52.781 48.574zm-138.2 22.867h66.004l-44.614 180.66h120.11l-10.227 45.729h-190.18z"/>
  </g>
 </g>
</svg>
