<?xml version="1.0" encoding="UTF-8" standalone="no"?>
<!-- Created with Inkscape (http://www.inkscape.org/) -->

<svg
   width="381.33511"
   height="381.33511"
   viewBox="0 0 381.33512 381.33512"
   version="1.1"
   id="svg5"
   sodipodi:docname="logo.svg"
   inkscape:version="1.1.1 (1:1.1+202109281949+c3084ef5ed)"
   xmlns:inkscape="http://www.inkscape.org/namespaces/inkscape"
   xmlns:sodipodi="http://sodipodi.sourceforge.net/DTD/sodipodi-0.dtd"
   xmlns="http://www.w3.org/2000/svg"
   xmlns:svg="http://www.w3.org/2000/svg">
  <sodipodi:namedview
     id="namedview7"
     pagecolor="#ffffff"
     bordercolor="#666666"
     borderopacity="1.0"
     inkscape:pageshadow="2"
     inkscape:pageopacity="0.0"
     inkscape:pagecheckerboard="0"
     inkscape:document-units="px"
     showgrid="false"
     inkscape:zoom="0.84590922"
     inkscape:cx="436.21702"
     inkscape:cy="-33.100479"
     inkscape:window-width="1920"
     inkscape:window-height="1015"
     inkscape:window-x="0"
     inkscape:window-y="0"
     inkscape:window-maximized="1"
     inkscape:current-layer="layer1"
     fit-margin-top="0"
     fit-margin-left="0"
     fit-margin-right="0"
     fit-margin-bottom="0" />
  <defs
     id="defs2">
    <inkscape:path-effect
       effect="perspective-envelope"
       up_left_point="794.29264,605.38702"
       up_right_point="1034.9377,605.38702"
       down_left_point="716.35096,904.88733"
       down_right_point="967.95839,904.88733"
       id="path-effect85689"
       is_visible="true"
       lpeversion="1"
       deform_type="perspective"
       horizontal_mirror="false"
       vertical_mirror="false"
       overflow_perspective="false" />
    <inkscape:path-effect
       effect="perspective-envelope"
       up_left_point="794.29264,605.38702"
       up_right_point="1034.9377,605.38702"
       down_left_point="716.35096,904.88733"
       down_right_point="967.95839,904.88733"
       id="path-effect85190"
       is_visible="true"
       lpeversion="1"
       deform_type="perspective"
       horizontal_mirror="false"
       vertical_mirror="false"
       overflow_perspective="false" />
    <inkscape:path-effect
       effect="perspective-envelope"
       up_left_point="794.29264,605.38702"
       up_right_point="1034.9377,605.38702"
       down_left_point="716.35096,904.88733"
       down_right_point="967.95839,904.88733"
       id="path-effect75109"
       is_visible="true"
       lpeversion="1"
       deform_type="perspective"
       horizontal_mirror="false"
       vertical_mirror="false"
       overflow_perspective="false" />
    <inkscape:path-effect
       effect="perspective-envelope"
       up_left_point="196.23436,323.02198"
       up_right_point="831.81451,323.76108"
       down_left_point="143.96931,497.72256"
       down_right_point="778.15046,496.93379"
       id="path-effect49878"
       is_visible="true"
       lpeversion="1"
       deform_type="envelope_deformation"
       horizontal_mirror="false"
       vertical_mirror="false"
       overflow_perspective="false" />
    <inkscape:path-effect
       effect="lattice2"
       gridpoint0="226.20374,575.20906"
       gridpoint1="1411.7194,575.20906"
       gridpoint2="226.20374,943.82234"
       gridpoint3="1411.7194,943.82234"
       gridpoint4="522.58266,575.20906"
       gridpoint5="1115.3405,575.20906"
       gridpoint6="522.58266,943.82234"
       gridpoint7="1115.3405,943.82234"
       gridpoint8x9="818.96157,575.20906"
       gridpoint10x11="818.96157,943.82234"
       gridpoint12="226.20374,667.36238"
       gridpoint13="1411.7194,667.36238"
       gridpoint14="226.20374,851.66902"
       gridpoint15="1411.7194,851.66902"
       gridpoint16="522.58266,667.36238"
       gridpoint17="1115.3405,667.36238"
       gridpoint18="522.58266,851.66902"
       gridpoint19="1115.3405,851.66902"
       gridpoint20x21="818.96157,667.36238"
       gridpoint22x23="818.96157,851.66902"
       gridpoint24x26="226.20374,759.5157"
       gridpoint25x27="1411.7194,759.5157"
       gridpoint28x30="522.58266,759.5157"
       gridpoint29x31="1115.3405,759.5157"
       gridpoint32x33x34x35="818.96157,759.5157"
       id="path-effect49876"
       is_visible="true"
       lpeversion="1"
       horizontal_mirror="false"
       vertical_mirror="false"
       perimetral="false"
       live_update="true" />
  </defs>
  <g
     inkscape:label="Layer 1"
     inkscape:groupmode="layer"
     id="layer1"
     transform="translate(-100.3362,-568.34448)">
    <path
       id="path45434"
       style="font-weight:bold;font-size:192px;line-height:1.25;-inkscape-font-specification:'sans-serif Bold';stroke-width:0.490723"
       d="M 309.21832,82.057902 V 95.491431 H 325.6882 V 82.057902 Z m 179.88049,0 v 13.433529 h 16.46988 V 82.057902 Z m 32.29571,0 v 71.584158 h 16.46987 V 132.1576 l 20.10428,21.48446 h 19.96627 l -27.1431,-27.87918 25.1649,-23.64669 h -19.13818 l -18.95417,18.90814 V 82.057902 Z m -271.47695,2.898325 v 68.685833 h 48.81156 V 140.25453 H 267.62958 V 84.956227 Z m 334.87218,0 v 68.685833 h 17.71199 v -27.05109 l 27.32712,27.05109 h 22.17452 L 615.52125,117.48194 648.59899,84.956227 H 628.03468 L 602.50174,110.02909 V 84.956227 Z M 399.11256,87.48652 v 14.62967 h -8.18893 v 11.77734 h 8.18893 v 21.85248 c 0,6.50208 1.34949,11.11794 4.04846,13.84758 2.72965,2.69898 7.34551,4.04847 13.84758,4.04847 h 14.12361 v -11.77735 h -8.46497 c -2.82165,0 -4.70787,-0.41405 -5.65864,-1.24214 -0.95078,-0.85877 -1.42616,-2.48429 -1.42616,-4.87656 v -21.85248 h 16.97593 V 102.11619 H 415.58244 V 87.48652 Z m -37.81631,13.38752 c -7.72888,0 -13.4642,1.31882 -17.20596,3.95645 -3.74176,2.63763 -5.61264,6.6861 -5.61264,12.14538 0,5.06058 1.47217,8.83301 4.41651,11.31729 2.94433,2.48429 8.08158,4.18648 15.41175,5.10659 l 2.89833,0.36804 c 3.34305,0.39871 5.56664,0.96611 6.67076,1.70219 1.1348,0.70541 1.7022,1.79421 1.7022,3.26638 0,1.7482 -0.81276,3.06701 -2.43828,3.95645 -1.62552,0.88943 -4.04846,1.33414 -7.26883,1.33414 -3.55774,0 -7.06947,-0.39871 -10.5352,-1.19613 -3.43506,-0.79743 -6.79344,-1.99356 -10.07515,-3.58841 v 12.51343 c 3.83377,1.07345 7.5602,1.87088 11.17928,2.39227 3.64975,0.55206 7.17681,0.82809 10.5812,0.82809 8.03558,0 14.07761,-1.38016 18.12607,-4.14047 4.04846,-2.76031 6.07269,-6.88545 6.07269,-12.3754 0,-5.2446 -1.45683,-9.09371 -4.3705,-11.54732 -2.91367,-2.45362 -8.58764,-4.21715 -17.02194,-5.2906 l -2.89833,-0.41405 c -2.975,-0.33738 -5.04524,-0.85877 -6.21071,-1.56418 -1.13479,-0.70542 -1.70219,-1.71753 -1.70219,-3.03635 0,-1.62552 0.75142,-2.82165 2.25426,-3.58841 1.5335,-0.79742 3.86444,-1.19613 6.99279,-1.19613 2.91367,0 6.01135,0.36804 9.29306,1.10412 3.28171,0.73609 6.6861,1.84021 10.21316,3.31238 v -12.51343 c -3.92578,-0.98144 -7.56019,-1.70218 -10.90324,-2.16224 -3.34304,-0.46005 -6.53274,-0.69008 -9.56909,-0.69008 z m 114.9671,0 c -3.83377,0 -7.13081,0.78209 -9.89113,2.34627 -2.72964,1.53351 -5.15259,3.98712 -7.26883,7.36084 v -8.46496 h -16.46987 v 51.52587 h 16.46987 v -23.73871 c 0,-5.06058 1.1348,-8.94036 3.40439,-11.63933 2.30026,-2.72964 5.56664,-4.09446 9.79912,-4.09446 1.4415,0 2.86766,0.16868 4.27849,0.50605 1.44149,0.3067 2.88299,0.79743 4.32449,1.47217 l -0.046,-14.9057 c -1.22681,-0.15336 -2.16225,-0.24537 -2.80632,-0.27603 -0.64408,-0.0613 -1.24214,-0.092 -1.79421,-0.092 z m -167.04503,1.24215 v 51.52587 h 16.46988 v -51.52587 z m 179.88049,0 v 51.52587 h 16.46988 v -51.52587 z m 165.7569,0 v 31.46758 c 0,6.96213 1.54886,12.26806 4.64655,15.91781 3.12836,3.64975 7.66754,5.47462 13.61755,5.47462 3.34305,0 6.39471,-0.70541 9.15502,-2.11624 2.79098,-1.4415 5.42862,-3.66508 7.9129,-6.67075 v 7.45285 h 16.46988 v -51.52587 h -16.46988 v 25.44089 c 0,4.69253 -0.98144,8.35762 -2.94433,10.99526 -1.96289,2.63763 -4.66187,3.95645 -8.09693,3.95645 -1.41082,0 -2.6683,-0.29137 -3.77243,-0.87411 -1.07345,-0.58273 -1.94753,-1.41082 -2.62227,-2.48428 -0.52139,-0.82809 -0.88944,-2.14691 -1.10413,-3.95645 -0.21469,-1.84021 -0.32206,-4.83055 -0.32206,-8.97102 0,-1.41083 0.0152,-4.21715 0.0461,-8.41896 0.0309,-4.23248 0.0461,-7.74421 0.0461,-10.5352 v -5.15258 z m -214.70648,64.68815 v 23.86139 h 5.48996 v -2.48429 c 0.75654,1.0019 1.59485,1.74309 2.51496,2.22359 0.9201,0.47028 1.97822,0.70542 3.17436,0.70542 2.11624,0 3.85422,-0.83832 5.21393,-2.51496 1.35971,-1.68686 2.03956,-3.85422 2.03956,-6.50207 0,-2.64786 -0.67985,-4.8101 -2.03956,-6.48674 -1.35971,-1.68686 -3.09769,-2.53029 -5.21393,-2.53029 -1.19614,0 -2.25426,0.24025 -3.17436,0.72075 -0.92011,0.47027 -1.75842,1.20636 -2.51496,2.20825 v -9.20105 z m 75.34125,0 v 23.86139 h 5.48997 v -23.86139 z m 110.93399,0.55207 c -2.76032,0 -4.87656,0.6134 -6.34873,1.84021 -1.47216,1.2268 -2.20825,2.98011 -2.20825,5.25993 0,1.81976 0.52655,3.26637 1.57954,4.33983 1.06325,1.07345 2.73985,1.85554 5.02991,2.34626 l 2.2849,0.50606 c 1.39041,0.3067 2.31562,0.6543 2.77567,1.04279 0.47026,0.38849 0.70542,0.94055 0.70542,1.65618 0,0.79743 -0.34253,1.41083 -1.02748,1.84021 -0.68495,0.42939 -1.6715,0.64408 -2.95964,0.64408 -1.26769,0 -2.5865,-0.19424 -3.95645,-0.58274 -1.3597,-0.39871 -2.77053,-0.98655 -4.23249,-1.76353 v 4.9839 c 1.46196,0.54184 2.92393,0.95078 4.38584,1.22681 1.46196,0.27603 2.91877,0.41405 4.37047,0.41405 3.07722,0 5.36217,-0.61341 6.85481,-1.84021 1.50283,-1.23703 2.25423,-3.11814 2.25423,-5.64331 0,-1.922 -0.53671,-3.40439 -1.61016,-4.44718 -1.07346,-1.04278 -2.883,-1.81976 -5.42862,-2.33093 l -2.51495,-0.50606 c -1.19614,-0.24536 -2.02423,-0.53672 -2.48429,-0.8741 -0.44984,-0.34759 -0.67474,-0.82809 -0.67474,-1.44149 0,-0.81788 0.33737,-1.42105 1.01212,-1.80954 0.67474,-0.38849 1.71752,-0.58274 3.12835,-0.58274 1.06325,0 2.19289,0.14313 3.38903,0.42939 1.19614,0.28625 2.42294,0.71052 3.68042,1.27281 v -4.84589 c -1.42103,-0.37826 -2.79609,-0.65941 -4.12511,-0.84343 -1.32903,-0.19424 -2.62233,-0.29136 -3.8798,-0.29136 z m -132.1424,0.41404 v 22.89528 h 16.27052 v -4.46251 h -10.36652 v -5.2446 h 9.43108 v -4.46251 h -9.43108 v -4.26315 h 10.02915 v -4.46251 z m 72.39693,0.84343 v 4.87656 h -2.72965 v 3.92578 h 2.72965 v 7.28416 c 0,2.16736 0.44984,3.70598 1.34948,4.61586 0.9099,0.89966 2.44851,1.34949 4.61589,1.34949 h 4.70784 v -3.92578 h -2.82165 c -0.94052,0 -1.56924,-0.13802 -1.88619,-0.41405 -0.31691,-0.28625 -0.47542,-0.82809 -0.47542,-1.62552 v -7.28416 h 5.65867 v -3.92578 h -5.65867 v -4.87656 z m 74.6972,0 v 4.87656 h -2.72965 v 3.92578 h 2.72965 v 7.28416 c 0,2.16736 0.44984,3.70598 1.34948,4.61586 0.9099,0.89966 2.44851,1.34949 4.61584,1.34949 h 4.70789 v -3.92578 h -2.82165 c -0.94057,0 -1.56933,-0.13802 -1.88624,-0.41405 -0.31691,-0.28625 -0.47537,-0.82809 -0.47537,-1.62552 v -7.28416 h 5.65862 v -3.92578 h -5.65862 v -4.87656 z m 36.2061,0 v 4.87656 h -2.72965 v 3.92578 h 2.72965 v 7.28416 c 0,2.16736 0.44984,3.70598 1.34948,4.61586 0.9099,0.89966 2.44851,1.34949 4.61589,1.34949 h 4.70784 v -3.92578 h -2.82165 c -0.94052,0 -1.56924,-0.13802 -1.88619,-0.41405 -0.31691,-0.28625 -0.47542,-0.82809 -0.47542,-1.62552 v -7.28416 h 5.65867 v -3.92578 h -5.65867 v -4.87656 z m -143.09162,4.46251 c -2.9648,0 -5.29573,0.80254 -6.9928,2.40761 -1.68686,1.60507 -2.53031,3.80821 -2.53031,6.60942 0,2.85232 0.85876,5.0708 2.57629,6.65542 1.72774,1.5744 4.14563,2.36161 7.25352,2.36161 1.2984,0 2.59676,-0.1278 3.89511,-0.38338 1.2984,-0.24536 2.59676,-0.61341 3.89511,-1.10413 v -4.23248 c -1.27789,0.69519 -2.52516,1.21658 -3.74176,1.56418 -1.20634,0.33737 -2.38717,0.50606 -3.54243,0.50606 -1.43124,0 -2.54562,-0.32204 -3.34305,-0.96611 -0.79742,-0.64408 -1.26253,-1.61019 -1.39546,-2.89833 h 12.83543 v -1.56418 c 0,-2.71942 -0.81273,-4.89189 -2.43825,-6.51741 -1.61531,-1.62552 -3.77243,-2.43828 -6.4714,-2.43828 z m 21.66845,0 c -3.09769,0 -5.52064,0.79743 -7.26884,2.39227 -1.7482,1.58463 -2.62227,3.79288 -2.62227,6.62476 0,2.83187 0.87407,5.04524 2.62227,6.64009 1.7482,1.58462 4.17115,2.37694 7.26884,2.37694 0.88944,0 1.77377,-0.0818 2.65299,-0.24537 0.88944,-0.15335 1.76351,-0.38849 2.62228,-0.70541 v -4.49318 c -0.65428,0.50095 -1.3699,0.87921 -2.14691,1.1348 -0.76676,0.25558 -1.57949,0.38337 -2.43826,0.38337 -1.5335,0 -2.72964,-0.44471 -3.5884,-1.33415 -0.84851,-0.89965 -1.27284,-2.15202 -1.27284,-3.75709 0,-1.60507 0.42433,-2.85233 1.27284,-3.74176 0.85876,-0.89966 2.0549,-1.34949 3.5884,-1.34949 0.80768,0 1.58465,0.12268 2.33094,0.36804 0.75654,0.24536 1.50794,0.62363 2.25423,1.1348 v -4.47784 c -0.86897,-0.31693 -1.74305,-0.55207 -2.62228,-0.70542 -0.86897,-0.16357 -1.7533,-0.24536 -2.65299,-0.24536 z m 36.23682,0 c -1.27789,0 -2.37696,0.2607 -3.29707,0.78209 -0.90989,0.51117 -1.71753,1.32904 -2.42294,2.45361 v -2.82165 h -5.48996 v 17.17529 h 5.48996 v -7.9129 c 0,-1.68686 0.3783,-2.98012 1.1348,-3.87978 0.76675,-0.90988 1.85557,-1.36482 3.26639,-1.36482 0.48052,0 0.95588,0.0562 1.42614,0.16869 0.48052,0.10223 0.96098,0.2658 1.4415,0.49072 l -0.0152,-4.96857 c -0.40892,-0.0511 -0.72078,-0.0818 -0.93547,-0.092 -0.21469,-0.0205 -0.41402,-0.0307 -0.59804,-0.0307 z m 12.45208,0 c -2.96479,0 -5.28547,0.79743 -6.96212,2.39227 -1.6664,1.59485 -2.49964,3.8031 -2.49964,6.62476 0,2.82165 0.83324,5.0299 2.49964,6.62475 1.67665,1.59485 3.99733,2.39228 6.96212,2.39228 2.9546,0 5.25991,-0.79743 6.9161,-2.39228 1.6664,-1.59485 2.49964,-3.8031 2.49964,-6.62475 0,-2.82166 -0.83324,-5.02991 -2.49964,-6.62476 -1.65619,-1.59484 -3.9615,-2.39227 -6.9161,-2.39227 z m 58.34996,0 c -1.18588,0 -2.37181,0.0767 -3.55774,0.23003 -1.18588,0.14313 -2.36666,0.35782 -3.54238,0.64407 v 4.18648 c 0.86902,-0.47028 1.80954,-0.82298 2.82166,-1.05812 1.01211,-0.23514 2.10603,-0.35271 3.2817,-0.35271 1.45171,0 2.52006,0.20447 3.20501,0.6134 0.68495,0.39872 1.02748,1.03257 1.02748,1.90155 v 0.42939 h -3.23573 c -2.96475,0 -5.14233,0.47027 -6.53274,1.41082 -1.38016,0.94056 -2.07022,2.41783 -2.07022,4.43184 0,1.65619 0.55207,3.00568 1.65619,4.04846 1.11439,1.03257 2.56094,1.54885 4.33981,1.54885 1.31881,0 2.4383,-0.23514 3.3584,-0.70542 0.92011,-0.4805 1.7482,-1.24214 2.48429,-2.28493 v 2.54563 h 5.53594 v -9.79912 c 0,-2.75009 -0.69006,-4.73342 -2.07022,-5.95001 -1.36995,-1.22681 -3.60376,-1.84021 -6.70145,-1.84021 z m 35.48538,0 c -2.5763,0 -4.48806,0.4396 -5.73532,1.31882 -1.24723,0.87921 -1.87088,2.2287 -1.87088,4.04846 0,1.68686 0.49072,2.94433 1.47216,3.77243 0.98145,0.82809 2.69392,1.39549 5.13728,1.70219 l 0.96609,0.12268 c 1.11433,0.13291 1.85556,0.32204 2.22361,0.5674 0.37829,0.23514 0.56737,0.59807 0.56737,1.08879 0,0.58273 -0.27088,1.02234 -0.81273,1.31882 -0.54181,0.29648 -1.34949,0.44472 -2.42295,0.44472 -1.18593,0 -2.3565,-0.13291 -3.51176,-0.39872 -1.145,-0.26581 -2.26443,-0.66452 -3.35835,-1.19613 v 4.17114 c 1.27794,0.35782 2.52005,0.62362 3.7264,0.79742 1.2166,0.18402 2.39227,0.27604 3.52706,0.27604 2.67856,0 4.69254,-0.46006 6.04203,-1.38016 1.34948,-0.92011 2.02423,-2.29515 2.02423,-4.12514 0,-1.7482 -0.48557,-3.03123 -1.45681,-3.8491 -0.97119,-0.81788 -2.86253,-1.40572 -5.67398,-1.76354 l -0.96614,-0.13801 c -0.99165,-0.11246 -1.6817,-0.28626 -2.07021,-0.5214 -0.37825,-0.23514 -0.56742,-0.57251 -0.56742,-1.01211 0,-0.54184 0.25051,-0.94055 0.75144,-1.19614 0.51119,-0.26581 1.28815,-0.39871 2.33094,-0.39871 0.97123,0 2.00381,0.12268 3.09768,0.36804 1.09392,0.24536 2.22872,0.61341 3.40439,1.10413 v -4.17114 c -1.30861,-0.32715 -2.52011,-0.5674 -3.63444,-0.72075 -1.11433,-0.15335 -2.17758,-0.23003 -3.18969,-0.23003 z m -238.30716,0.41405 7.6522,17.8347 -0.15335,0.47538 c -0.23513,0.76676 -0.5674,1.29837 -0.99678,1.59485 -0.41916,0.29648 -1.0939,0.44472 -2.02423,0.44472 h -1.71753 v 3.60374 h 3.17436 c 1.58463,0 2.85744,-0.38337 3.81844,-1.15013 0.97122,-0.75653 1.81976,-2.09068 2.54562,-4.00245 l 7.22282,-18.80081 h -5.48996 l -3.92578,11.65466 -4.61586,-11.65466 z m 74.0838,3.2357 c 0.98144,0 1.77371,0.32204 2.37691,0.96611 0.6134,0.63385 0.9201,1.47217 0.9201,2.51495 h -7.13078 c 0.16355,-1.12457 0.57758,-1.98334 1.24211,-2.57629 0.66454,-0.60318 1.52841,-0.90477 2.59166,-0.90477 z m 70.38802,0.27603 c 1.19614,0 2.11114,0.43961 2.74496,1.31882 0.63387,0.86898 0.95077,2.12646 0.95077,3.77243 0,1.64596 -0.3169,2.90855 -0.95077,3.78776 -0.63382,0.86899 -1.54882,1.30348 -2.74496,1.30348 -1.21655,0 -2.14691,-0.43449 -2.79098,-1.30348 -0.63387,-0.87921 -0.95077,-2.1418 -0.95077,-3.78776 0,-1.64597 0.3169,-2.90345 0.95077,-3.77243 0.64407,-0.87921 1.57443,-1.31882 2.79098,-1.31882 z m -155.55909,0.0613 c 1.1757,0 2.07024,0.42938 2.68364,1.28815 0.62363,0.85876 0.93544,2.10602 0.93544,3.74176 0,1.63574 -0.31181,2.88299 -0.93544,3.74176 -0.6134,0.85876 -1.50794,1.28814 -2.68364,1.28814 -1.17569,0 -2.08045,-0.42938 -2.71431,-1.28814 -0.62362,-0.86899 -0.93544,-2.11624 -0.93544,-3.74176 0,-1.62552 0.31182,-2.86766 0.93544,-3.72643 0.63386,-0.86898 1.53862,-1.30348 2.71431,-1.30348 z m 214.29245,5.87334 h 2.85233 v 0.62874 c 0,1.11434 -0.35273,2.04467 -1.05815,2.79098 -0.70541,0.73608 -1.57438,1.10413 -2.60696,1.10413 -0.8281,0 -1.47727,-0.19425 -1.94753,-0.58274 -0.46006,-0.39871 -0.69011,-0.94566 -0.69011,-1.64085 0,-0.75653 0.28629,-1.32904 0.85877,-1.71753 0.58273,-0.38849 1.44665,-0.58273 2.59165,-0.58273 z" />
    <rect
       style="opacity:1;fill:#ffff00;fill-opacity:1;stroke-width:0.957545"
       id="rect51204"
       width="725.20557"
       height="239.81528"
       x="125.28912"
       y="290.46463" />
    <path
       id="rect45546"
       style="opacity:1;fill:#0e0e0e;fill-opacity:1;stroke-width:0.4085"
       d="m 196.23436,323.02198 -52.26505,174.70058 634.18115,-0.78877 53.66405,-173.17271 z m 123.56352,31.7277 17.9864,0.0131 -3.90615,12.94714 -17.98346,-0.01 z m 196.44363,0.14299 17.98639,0.0131 -3.93827,12.91206 -17.98345,-0.01 z m 35.26941,0.0257 17.9864,0.0131 -11.44043,37.43552 26.24576,-18.15574 20.89526,0.01 -34.42193,22.70056 21.42647,26.77198 -21.78569,0.005 -15.62856,-20.63545 -6.30777,20.64037 -17.97072,0.004 z m -297.31397,2.58077 19.34224,0.0133 -16.03674,53.3427 33.93907,-0.002 -3.88797,12.90804 -53.25961,0.0119 z m 365.69378,0.25212 19.3422,0.0133 -7.38286,24.06427 35.26582,-24.04505 22.45706,0.0155 -45.7052,31.18626 29.15278,34.68977 -24.19523,0.005 -21.85198,-25.95623 -7.96536,25.96291 -19.32603,0.004 z m -203.50509,2.29618 17.98521,0.0118 -4.27144,14.08086 18.53453,0.009 -3.44131,11.33264 -18.53186,-0.006 -6.3803,21.03275 c -0.69848,2.30253 -0.65429,3.86705 0.13256,4.69354 0.79577,0.79695 2.73326,1.19532 5.81248,1.19511 l 9.23768,-6.2e-4 -3.44108,11.33288 -15.41064,0.003 c -7.09459,0.002 -11.73724,-1.29634 -13.92811,-3.89394 -2.14864,-2.62735 -2.27453,-7.07096 -0.37754,-13.33068 l 6.37551,-21.03797 -8.93949,-0.003 3.43479,-11.33977 8.94077,0.004 z m -45.19476,12.8688 c 3.31516,0.002 6.73076,0.22481 10.24673,0.66963 3.51594,0.44478 7.27397,1.14073 11.27403,2.08778 l -3.64794,12.05015 c -3.42113,-1.41879 -6.81573,-2.48324 -10.18375,-3.19328 -3.36808,-0.71012 -6.64255,-1.06573 -9.82335,-1.06679 -3.41517,-0.001 -6.07591,0.38212 -7.98219,1.14977 -1.86384,0.73817 -3.03237,1.89028 -3.50562,3.45629 -0.38396,1.27055 -0.0593,2.24576 0.97408,2.92562 1.06679,0.67986 3.17476,1.18262 6.32391,1.5083 l 3.04309,0.39948 c 8.89368,1.03572 14.57303,2.73522 17.03808,5.09856 2.46487,2.36313 2.93266,6.06969 1.40351,11.11986 -1.6007,5.28644 -5.0123,9.25898 -10.23458,11.91788 -5.22198,2.65921 -12.21671,3.99 -20.98441,3.99212 -3.71456,9e-4 -7.48261,-0.2641 -11.30419,-0.79502 -3.79709,-0.50145 -7.63103,-1.26889 -11.50188,-2.30238 l 3.64086,-12.05788 c 3.1173,1.53659 6.43415,2.68888 9.95065,3.45689 3.54989,0.76794 7.266,1.1517 11.14839,1.15132 3.51425,-3.3e-4 6.28784,-0.42895 8.32083,-1.28581 2.03302,-0.85681 3.30422,-2.12709 3.81357,-3.81088 0.42893,-1.41793 0.12693,-2.4666 -0.90602,-3.14606 -0.99058,-0.70901 -3.25208,-1.25561 -6.7845,-1.63982 l -3.05605,-0.35467 c -7.73226,-0.88681 -12.84367,-2.5272 -15.33427,-4.92117 -2.4908,-2.39418 -3.0001,-6.02955 -1.52774,-10.90596 1.58835,-5.2606 4.80876,-9.16094 9.6614,-11.70077 4.85289,-2.53955 11.49875,-3.80719 19.93736,-3.80316 z m 125.52434,0.06 c 0.60275,2.9e-4 1.24676,0.0301 1.93201,0.0894 0.69423,0.0298 1.68864,0.11878 2.98319,0.26688 l -4.31477,14.33243 c -1.376,-0.64923 -2.8059,-1.12155 -4.28971,-1.41693 -1.44135,-0.32488 -2.94883,-0.48757 -4.52245,-0.48804 -4.62039,-0.001 -8.58551,1.31019 -11.89523,3.93487 -3.26712,2.59537 -5.64084,6.32689 -7.12131,11.19443 l -6.94475,22.8332 -17.97071,0.004 15.0626,-49.57277 17.982,0.008 -2.47642,8.14207 c 3.29737,-3.24412 6.66056,-5.60293 10.0895,-7.07652 3.4715,-1.50294 7.30022,-2.25336 11.48603,-2.25136 z m -182.74542,1.11031 17.98201,0.008 -14.98249,49.66026 -17.97073,0.004 z m 196.39566,0.0906 17.98201,0.008 -15.10572,49.52569 -17.97072,0.004 z m 180.97531,0.0835 18.08246,0.008 -1.52193,4.94017 c -0.82438,2.67592 -1.87824,6.04287 -3.16212,10.10086 -1.27481,4.02857 -2.12031,6.71919 -2.53703,8.07186 -1.22297,3.96978 -1.98902,6.83684 -2.29828,8.6012 -0.3002,1.73493 -0.28809,2.99935 0.0363,3.79328 0.41928,1.02914 1.12854,1.82302 2.12779,2.38163 1.03281,0.55859 2.31893,0.83782 3.85854,0.83771 3.7486,-2.9e-4 7.08372,-1.2647 10.00546,-3.7931 2.92182,-2.52827 5.07645,-6.04124 6.46366,-10.53904 l 7.52089,-24.38511 17.98198,0.008 -15.24346,49.37525 -17.9707,0.004 2.20323,-7.14355 c -3.59938,2.88138 -7.13469,5.01333 -10.60611,6.39576 -3.42875,1.35315 -6.96689,2.0302 -10.6145,2.03108 -6.49212,0.002 -10.90601,-1.74711 -13.24206,-5.24628 -2.30283,-3.4995 -2.42691,-8.58776 -0.37202,-15.26454 z m -253.32724,62.13032 5.98928,-0.002 -2.69012,8.85188 c 1.11817,-0.96429 2.24788,-1.67289 3.38909,-2.12581 1.1442,-0.46273 2.36873,-0.6944 3.67356,-0.69503 2.30854,-0.001 3.95774,0.80927 4.94756,2.43112 0.99275,1.61194 1.10178,3.69133 0.32717,6.23821 -0.77461,2.54687 -2.15016,4.63207 -4.12661,6.25563 -1.9734,1.6138 -4.11409,2.42156 -6.42212,2.42323 -1.30454,9.5e-4 -2.3898,-0.22443 -3.25578,-0.67612 -0.86301,-0.46154 -1.56061,-1.17394 -2.09279,-2.13724 l -0.72633,2.39 -5.98754,0.004 z m 82.19367,-0.0328 5.98928,-0.002 -7.00027,22.92977 -5.98754,0.004 z m 120.86088,0.48136 c 1.37184,-5.6e-4 2.75411,0.0921 4.14672,0.27781 1.39562,0.17594 2.81284,0.44503 4.25156,0.80726 l -1.42895,4.6487 c -1.20595,-0.53874 -2.41916,-0.94513 -3.63962,-1.21913 -1.22042,-0.27402 -2.41053,-0.41076 -3.57042,-0.41022 -1.53907,7.1e-4 -2.7339,0.1876 -3.58443,0.56069 -0.85059,0.37309 -1.3964,0.952 -1.63745,1.73672 -0.18079,0.58854 -0.0771,1.04944 0.31119,1.38271 0.40238,0.32343 1.21983,0.60251 2.45225,0.83723 l 2.5942,0.48406 c 2.6261,0.48891 4.37086,1.23323 5.2343,2.23294 0.86341,0.99968 1.01167,2.42138 0.44488,4.26513 -0.74468,2.42237 -2.11893,4.22744 -4.12284,5.41527 -1.98965,1.17807 -4.66252,1.76834 -8.01864,1.77077 -1.58327,0.001 -3.13143,-0.13014 -4.64453,-0.39384 -1.51307,-0.26371 -2.98703,-0.65495 -4.42184,-1.17374 l 1.46857,-4.7823 c 1.36562,0.74453 2.73119,1.30758 4.09668,1.68917 1.37972,0.37175 2.76087,0.55717 4.14352,0.55625 1.40495,-9.4e-4 2.54423,-0.20763 3.4179,-0.62007 0.87368,-0.41242 1.42812,-1.00115 1.66323,-1.76618 0.21098,-0.68656 0.11722,-1.21604 -0.28115,-1.58843 -0.38729,-0.3724 -1.29398,-0.70528 -2.72014,-0.99862 l -2.34313,-0.48406 c -2.35329,-0.46936 -3.9516,-1.21872 -4.79504,-2.24806 -0.83225,-1.02938 -0.98035,-2.41717 -0.44414,-4.16332 0.67177,-2.1876 1.9914,-3.87035 3.95891,-5.04821 1.96757,-1.17781 4.45701,-1.76731 7.46841,-1.76853 z m -144.28133,0.45664 17.38209,-0.007 -1.30854,4.28898 -10.94058,0.005 -1.24951,4.098 10.28762,-0.005 -1.3085,4.28901 -10.28707,0.006 -1.53716,5.04141 11.30668,-0.007 -1.30856,4.28895 -17.74518,0.0127 z m 78.73264,0.7774 5.98916,-0.003 -1.43396,4.68253 6.17282,-0.003 -1.15468,3.76926 -6.17253,0.003 -2.14193,6.99435 c -0.23449,0.7657 -0.22093,1.28588 0.0405,1.56051 0.26455,0.26482 0.90966,0.39689 1.93552,0.39621 l 3.07751,-0.002 -1.15465,3.76929 -5.13455,0.004 c -2.36381,0.002 -3.90961,-0.42905 -4.63748,-1.29226 -0.71371,-0.87307 -0.75201,-2.35026 -0.11485,-4.43156 l 2.1414,-6.99493 -2.97752,0.002 1.15395,-3.77006 2.97767,-0.001 z m 81.48926,-0.0345 5.98914,-0.003 -1.43881,4.67724 6.17278,-0.003 -1.15858,3.76501 -6.17248,0.003 -2.14916,6.98645 c -0.23528,0.76484 -0.22232,1.28443 0.0389,1.55875 0.26417,0.26452 0.90926,0.39644 1.93511,0.39576 l 3.07751,-0.002 -1.15855,3.76503 -5.13455,0.004 c -2.36376,0.002 -3.90916,-0.42856 -4.63614,-1.29079 -0.7128,-0.87208 -0.74955,-2.3476 -0.11024,-4.42656 l 2.14863,-6.98703 -2.97752,0.002 1.15785,-3.7658 2.97767,-0.001 z m 39.49826,-0.0167 5.98914,-0.003 -1.44116,4.67468 6.17283,-0.003 -1.16047,3.76294 -6.17253,0.003 -2.15267,6.98262 c -0.23566,0.76442 -0.22291,1.28372 0.0381,1.55789 0.26413,0.26437 0.9091,0.39622 1.93491,0.39554 l 3.07751,-0.002 -1.16044,3.76296 -5.13455,0.004 c -2.36382,0.002 -3.90894,-0.42833 -4.63549,-1.29009 -0.71236,-0.8716 -0.74837,-2.34631 -0.10802,-4.42412 l 2.15214,-6.98321 -2.97754,0.002 1.15975,-3.76373 2.97768,-0.001 z m -157.41262,4.35348 c 2.94423,-0.001 5.05872,0.77825 6.34349,2.33896 1.29582,1.56063 1.5444,3.6471 0.74578,6.25946 l -0.45935,1.5026 -14,0.009 c -0.23308,1.23758 -0.009,2.16551 0.67138,2.78377 0.6807,0.61823 1.8016,0.92682 3.36262,0.92577 1.26001,-8.5e-4 2.59742,-0.16378 4.0122,-0.48877 1.42899,-0.33481 2.94248,-0.8366 4.54041,-1.50534 l -1.24291,4.0659 c -1.56014,0.47241 -3.08425,0.82699 -4.57237,1.06372 -1.49107,0.24656 -2.94461,0.37036 -4.36069,0.37139 -3.38955,0.002 -5.79551,-0.75202 -7.21782,-2.26346 -1.40826,-1.52136 -1.69394,-3.65246 -0.85699,-6.39325 0.82194,-2.69168 2.38842,-4.80917 4.6995,-6.35241 2.32228,-1.54317 5.10055,-2.3155 8.33475,-2.31706 z m 23.63744,-0.0114 c 0.98146,-4.7e-4 1.92209,0.0776 2.82195,0.23425 0.91404,0.14681 1.79843,0.37217 2.65322,0.67606 l -1.31609,4.30039 c -0.66382,-0.49046 -1.37227,-0.8533 -2.12541,-1.08849 -0.74196,-0.23521 -1.55343,-0.35258 -2.43446,-0.35211 -1.67278,8.9e-4 -3.10971,0.43365 -4.31078,1.29826 -1.18685,0.85481 -2.01611,2.05307 -2.48765,3.59476 -0.47155,1.54168 -0.37668,2.74428 0.28447,3.6078 0.67533,0.85368 1.84927,1.27993 3.52184,1.27881 0.93663,-6.3e-4 1.86065,-0.12395 2.77205,-0.36997 0.92256,-0.24603 1.81425,-0.60983 2.67511,-1.09139 l -1.32059,4.31511 c -1.02975,0.30504 -2.05216,0.53155 -3.06727,0.67953 -1.00697,0.15778 -1.99547,0.23704 -2.96551,0.23774 -3.37843,0.002 -5.7882,-0.75669 -7.22938,-2.27744 -1.43825,-1.53067 -1.74154,-3.65616 -0.90979,-6.37643 0.83175,-2.72028 2.43382,-4.84201 4.80625,-6.36515 2.37552,-1.53288 5.25288,-2.3001 8.63204,-2.30173 z m 39.52959,-0.0191 c 0.20074,-10e-5 0.41512,0.01 0.64334,0.0291 0.23113,0.01 0.56238,0.039 0.99337,0.0879 l -1.44588,4.76931 c -0.45792,-0.2156 -0.93389,-0.37234 -1.42796,-0.47018 -0.47984,-0.10768 -0.98184,-0.16137 -1.50596,-0.16109 -1.53895,8.4e-4 -2.86052,0.43821 -3.96463,1.31215 -1.08996,0.86413 -1.88312,2.1059 -2.37947,3.72528 l -2.32834,7.59642 -5.98753,0.004 5.0525,-16.48971 5.98879,-0.003 -0.83027,2.7088 c 1.10041,-1.07998 2.2221,-1.86557 3.3651,-2.35679 1.15713,-0.501 2.43279,-0.75184 3.82681,-0.75251 z m 13.58358,-0.007 c 3.22305,-0.002 5.50298,0.76249 6.83983,2.29208 1.34791,1.52951 1.60628,3.64806 0.77499,6.35573 -0.8313,2.70767 -2.39072,4.82732 -4.67802,6.35902 -2.2761,1.53176 -5.02526,2.29884 -8.24761,2.30117 -3.23348,0.002 -5.52971,-0.76122 -6.88881,-2.29071 -1.34798,-1.52959 -1.60678,-3.64863 -0.7762,-6.35707 0.83059,-2.70844 2.38955,-4.82857 4.67678,-6.36035 2.29851,-1.53171 5.06484,-2.29831 8.29904,-2.29987 z m 63.65215,-0.0307 c 3.37916,-0.002 5.6348,0.58533 6.76685,1.76085 1.14621,1.16567 1.31312,3.06683 0.5008,5.70351 l -2.89446,9.39505 -6.03772,0.004 0.75174,-2.44085 c -1.11076,1.00043 -2.23879,1.73137 -3.38417,2.19282 -1.14236,0.45166 -2.43272,0.67802 -3.8711,0.67906 -1.94005,0.001 -3.36529,-0.49256 -4.27595,-1.48191 -0.89643,-0.9992 -1.10024,-2.29296 -0.61142,-3.88127 0.59443,-1.93147 1.78314,-3.34865 3.5662,-4.25154 1.79422,-0.90286 4.30831,-1.35518 7.54223,-1.35703 l 3.52943,-0.002 0.1268,-0.41172 c 0.25662,-0.83322 0.0702,-1.44079 -0.5592,-1.82269 -0.62641,-0.39171 -1.73143,-0.58715 -3.31498,-0.58631 -1.28241,6.8e-4 -2.5104,0.11406 -3.68387,0.34013 -1.17341,0.22608 -2.30349,0.56488 -3.3902,1.01639 l 1.23572,-4.01482 c 1.36702,-0.27514 2.71848,-0.48165 4.05434,-0.61954 1.339,-0.14768 2.65529,-0.22183 3.94896,-0.22245 z m 38.70989,-0.0187 c 1.10405,-5.3e-4 2.24125,0.0724 3.41147,0.21876 1.17023,0.14637 2.42075,0.37596 3.75147,0.68875 l -1.23393,3.99713 c -1.13724,-0.46956 -2.26626,-0.82159 -3.38694,-1.05608 -1.12065,-0.2345 -2.21068,-0.35147 -3.27016,-0.35091 -1.13745,6e-4 -2.02432,0.12843 -2.66054,0.38348 -0.62196,0.24525 -1.01315,0.62752 -1.17338,1.14685 -0.12999,0.42131 -0.0234,0.74454 0.31965,0.96967 0.35429,0.22511 1.05555,0.39125 2.104,0.49841 l 1.013,0.13166 c 2.96086,0.34115 4.84996,0.90328 5.66735,1.68641 0.81746,0.78311 0.96748,2.01227 0.45029,3.6875 -0.54138,1.75361 -1.68405,3.07177 -3.4281,3.95452 -1.74395,0.88278 -4.07654,1.32524 -6.99786,1.32735 -1.23763,9e-4 -2.49266,-0.0864 -3.76508,-0.26177 -1.26431,-0.16564 -2.54043,-0.41944 -3.82841,-0.7614 l 1.23314,-3.99797 c 1.03596,0.50876 2.13903,0.89009 3.30931,1.14402 1.1814,0.25391 2.4188,0.38043 3.71229,0.37956 1.1708,-7.9e-4 2.09553,-0.14345 2.77416,-0.42798 0.67868,-0.28452 1.10418,-0.70601 1.27653,-1.26446 0.14514,-0.47028 0.0463,-0.81795 -0.2968,-1.04304 -0.32886,-0.23488 -1.08145,-0.41563 -2.25757,-0.54224 l -1.01743,-0.11691 c -2.57433,-0.29227 -4.27444,-0.83493 -5.10009,-1.62797 -0.82572,-0.79308 -0.98919,-1.99803 -0.4905,-3.61486 0.53799,-1.74422 1.61722,-3.03804 3.2377,-3.88143 1.62055,-0.84335 3.83598,-1.26569 6.64643,-1.26705 z m -260.0829,0.52373 5.9888,-0.003 1.62393,11.20572 7.69383,-11.21027 5.98879,-0.003 -13.38267,18.0838 c -1.35125,1.83909 -2.66717,3.12281 -3.9478,3.85121 -1.27244,0.73821 -2.77271,1.10804 -4.50082,1.10943 l -3.46178,0.003 1.05447,-3.46608 1.87313,-0.001 c 1.01461,-7.7e-4 1.79386,-0.1439 2.33776,-0.42938 0.55504,-0.28548 1.07299,-0.79703 1.55384,-1.53463 l 0.30638,-0.45731 z m 79.86541,3.06928 c -1.15982,6.2e-4 -2.19064,0.29088 -3.09257,0.8708 -0.89892,0.57012 -1.60261,1.39548 -2.11108,2.47609 l 7.7781,-0.004 c 0.30616,-1.00182 0.21774,-1.80702 -0.26527,-2.41561 -0.46889,-0.61842 -1.2386,-0.92736 -2.30918,-0.92679 z m 76.69936,0.22413 c -1.32706,7.1e-4 -2.47135,0.42317 -3.43277,1.26741 -0.94732,0.83442 -1.66321,2.04153 -2.14784,3.62132 -0.48464,1.57979 -0.51077,2.79138 -0.0783,3.6348 0.44658,0.83356 1.33336,1.2499 2.66025,1.24901 1.30463,-8.8e-4 2.43056,-0.41854 3.37777,-1.25295 0.95034,-0.84424 1.66783,-2.05613 2.15263,-3.63575 0.4848,-1.57961 0.50953,-2.7862 0.074,-3.61977 -0.43241,-0.84341 -1.30103,-1.26477 -2.60581,-1.26407 z m -169.70429,0.14981 c -1.28247,6.9e-4 -2.39644,0.4192 -3.34193,1.25557 -0.93133,0.82655 -1.63461,2.02175 -2.10987,3.58559 -0.47525,1.56382 -0.49982,2.76353 -0.0737,3.59909 0.44025,0.8257 1.30151,1.23812 2.58382,1.23727 1.2823,-8.6e-4 2.38353,-0.41457 3.30372,-1.24111 0.93135,-0.82654 1.63622,-2.02655 2.11462,-3.60003 0.4784,-1.5735 0.50307,-2.7731 0.074,-3.59881 -0.41796,-0.82573 -1.26817,-1.23826 -2.55063,-1.23757 z m 232.01928,5.50661 c -1.24893,7.7e-4 -2.24856,0.18762 -2.9989,0.56054 -0.7391,0.37293 -1.22035,0.92211 -1.4437,1.64759 -0.20523,0.66664 -0.1158,1.19096 0.26829,1.57297 0.39817,0.37219 1.04889,0.55797 1.95204,0.55736 1.12624,-7.6e-4 2.18269,-0.3543 3.16944,-1.06062 0.98972,-0.71609 1.64918,-1.60839 1.97826,-2.67688 l 0.18567,-0.60287 z"
       inkscape:original-d="m 196.23436,323.02198 v 173.91181 h 581.9161 V 323.02198 Z m 121.84321,31.48805 h 16.47432 v 12.91553 h -16.47432 z m 179.92898,0 h 16.47431 v 12.91553 h -16.47431 z m 32.30438,0 h 16.47431 v 37.46388 l 18.95927,-18.17905 h 19.14331 l -25.17162,22.73488 27.15036,26.80414 h -19.97161 l -20.10971,-20.656 v 20.656 h -16.47431 z m -271.5501,2.78657 h 17.7168 v 53.16598 h 31.10792 v 12.8713 h -48.82472 z m 334.9624,0 h 17.71676 v 24.10604 l 25.5398,-24.10604 h 20.56986 l -33.08662,31.27151 36.49194,34.76577 H 638.77446 L 611.43999,397.3259 v 26.00798 h -17.71676 z m -185.72719,2.43272 h 16.47432 v 14.06554 h 16.98051 v 11.32321 h -16.98051 v 21.00985 c 0,2.30002 0.47551,3.86286 1.42655,4.68851 0.95103,0.79616 2.83775,1.19425 5.66016,1.19425 h 8.46725 v 11.3232 h -14.12741 c -6.50383,0 -11.12093,-1.29745 -13.85132,-3.89235 -2.6997,-2.62439 -4.04955,-7.06226 -4.04955,-13.31361 v -21.00985 h -8.19114 v -11.32321 h 8.19114 z m -37.8265,12.8713 c 3.03716,0 6.22773,0.22116 9.57167,0.66347 3.34395,0.44231 6.97935,1.13527 10.90618,2.07887 v 12.0309 c -3.52802,-1.4154 -6.93332,-2.47695 -10.21591,-3.18465 -3.28259,-0.7077 -6.38112,-1.06155 -9.29557,-1.06155 -3.1292,0 -5.46076,0.38334 -6.99468,1.15001 -1.50324,0.73719 -2.25486,1.88721 -2.25486,3.45004 0,1.26797 0.56755,2.24106 1.70265,2.91926 1.16578,0.67822 3.23657,1.1795 6.21238,1.50387 l 2.89911,0.39808 c 8.43657,1.03206 14.11208,2.72759 17.02653,5.0866 2.91445,2.359 4.37168,6.05968 4.37168,11.10204 0,5.27827 -2.02478,9.24434 -6.07433,11.89822 -4.04955,2.65387 -10.0932,3.98081 -18.13095,3.98081 -3.40531,0 -6.93333,-0.26539 -10.58406,-0.79616 -3.62005,-0.50129 -7.34748,-1.26797 -11.18229,-2.30003 v -12.03091 c 3.2826,1.53335 6.64188,2.68337 10.07787,3.45004 3.46666,0.76668 6.97934,1.15002 10.53803,1.15002 3.22124,0 5.64483,-0.42757 7.2708,-1.28271 1.62595,-0.85514 2.43893,-2.1231 2.43893,-3.80389 0,-1.4154 -0.56755,-2.4622 -1.70265,-3.14042 -1.10443,-0.7077 -3.32862,-1.25322 -6.67256,-1.63656 l -2.89912,-0.35385 c -7.33214,-0.88462 -12.47077,-2.52118 -15.4159,-4.90967 -2.94513,-2.38849 -4.4177,-6.01545 -4.4177,-10.88089 0,-5.24877 1.87139,-9.14113 5.61416,-11.67705 3.74276,-2.53593 9.47963,-3.80389 17.21059,-3.80389 z m 114.99808,0 c 0.55221,0 1.15044,0.0295 1.79469,0.0885 0.64425,0.0295 1.57994,0.11794 2.80708,0.26539 l 0.046,14.33093 c -1.44188,-0.64872 -2.88377,-1.12052 -4.32566,-1.4154 -1.41121,-0.32436 -2.83775,-0.48655 -4.27964,-0.48655 -4.23362,0 -7.50087,1.3122 -9.80175,3.93659 -2.27021,2.5949 -3.40531,6.32507 -3.40531,11.19051 v 22.82333 h -16.4743 V 373.7949 h 16.47431 v 8.13855 c 2.11681,-3.24362 4.54041,-5.60262 7.27079,-7.077 2.76105,-1.50386 6.05899,-2.25579 9.89379,-2.25579 z m -167.09005,1.19424 h 16.47432 v 49.53902 h -16.47432 z m 179.92898,0 h 16.47431 v 49.53902 h -16.47431 z m 165.80153,0 h 16.56635 v 4.95391 c 0,2.68336 -0.0152,6.05968 -0.0461,10.12896 -0.0309,4.03978 -0.0461,6.73789 -0.0461,8.09432 0,3.98081 0.10742,6.85584 0.32216,8.6251 0.21474,1.73976 0.58288,3.00772 1.10442,3.80388 0.67494,1.03206 1.54926,1.82823 2.62296,2.38849 1.10447,0.56026 2.36224,0.8404 3.77346,0.8404 3.43599,0 6.1357,-1.26797 8.09913,-3.80389 1.96338,-2.53593 2.94512,-6.05969 2.94512,-10.57128 v -24.45989 h 16.47429 v 49.53902 h -16.47429 v -7.16546 c -2.48497,2.88977 -5.12329,5.02762 -7.91506,6.41353 -2.76105,1.35643 -5.81354,2.03464 -9.15747,2.03464 -5.95163,0 -10.49199,-1.75451 -13.62123,-5.26352 -3.09852,-3.50901 -4.64778,-8.61035 -4.64778,-15.30402 z m -214.7643,62.19377 h 5.49144 v 8.84626 c 0.75673,-0.96326 1.59528,-1.67096 2.51563,-2.12311 0.92035,-0.46197 1.97876,-0.69295 3.17522,-0.69295 2.11681,0 3.85525,0.8109 5.21533,2.43272 1.36008,1.61198 2.04011,3.69085 2.04011,6.23661 0,2.54575 -0.68003,4.62954 -2.04011,6.25135 -1.36008,1.61198 -3.09852,2.41798 -5.21533,2.41798 -1.19646,0 -2.25487,-0.22608 -3.17522,-0.67822 -0.92035,-0.46197 -1.7589,-1.17458 -2.51563,-2.13784 v 2.38848 h -5.49144 z m 75.36155,0 h 5.49144 v 22.94128 h -5.49144 z m 110.96386,0.53078 c 1.25782,0 2.55146,0.0934 3.88083,0.28013 1.32937,0.17692 2.70481,0.44723 4.12624,0.81091 v 4.65902 c -1.25782,-0.5406 -2.48497,-0.94851 -3.68145,-1.22373 -1.19643,-0.27522 -2.32637,-0.41282 -3.38991,-0.41282 -1.41122,0 -2.4543,0.18675 -3.12919,0.56026 -0.67494,0.37351 -1.01241,0.95343 -1.01241,1.73976 0,0.58975 0.22495,1.05172 0.67494,1.38592 0.46015,0.32436 1.28849,0.60449 2.48492,0.84039 l 2.51564,0.48654 c 2.54631,0.49146 4.35634,1.23848 5.43009,2.24106 1.07375,1.00257 1.6106,2.4278 1.6106,4.27568 0,2.42781 -0.75159,4.23637 -2.25487,5.4257 -1.49302,1.17951 -3.77856,1.76926 -6.85662,1.76926 -1.4521,0 -2.9093,-0.1327 -4.37165,-0.39809 -1.46231,-0.26539 -2.92466,-0.65855 -4.38701,-1.17949 v -4.79173 c 1.46235,0.74702 2.87357,1.3122 4.23361,1.69554 1.37034,0.3735 2.6895,0.56026 3.95753,0.56026 1.28849,0 2.27528,-0.20641 2.96043,-0.61924 0.68515,-0.41282 1.02777,-1.00257 1.02777,-1.76925 0,-0.68804 -0.23525,-1.21882 -0.70561,-1.59233 -0.4602,-0.3735 -1.38565,-0.7077 -2.77641,-1.00257 l -2.28554,-0.48655 c -2.29069,-0.4718 -3.96774,-1.22373 -5.03128,-2.25579 -1.05324,-1.03206 -1.57993,-2.42289 -1.57993,-4.17248 0,-2.19191 0.73628,-3.87761 2.20884,-5.05711 1.47256,-1.1795 3.58934,-1.76925 6.35044,-1.76925 z m -132.17799,0.39808 h 15.93744 v 4.29043 H 509.0968 v 4.09877 h 9.43361 v 4.29043 h -9.43361 v 5.04236 h 10.3693 v 4.29043 h -16.2749 z m 72.4164,0.81091 h 5.49145 v 4.68851 h 5.66019 v 3.7744 h -5.66019 v 7.00328 c 0,0.76668 0.15855,1.28763 0.47551,1.56284 0.31706,0.26539 0.94592,0.39809 1.88673,0.39809 h 2.82239 v 3.77439 h -4.70912 c -2.16796,0 -3.70697,-0.43248 -4.61711,-1.29744 -0.89989,-0.8748 -1.34985,-2.35409 -1.34985,-4.43788 v -7.00328 h -2.73038 v -3.7744 h 2.73038 z m 74.71734,0 h 5.49143 v 4.68851 h 5.66014 v 3.7744 h -5.66014 v 7.00328 c 0,0.76668 0.1585,1.28763 0.47551,1.56284 0.31696,0.26539 0.94592,0.39809 1.88673,0.39809 h 2.82239 v 3.77439 h -4.70912 c -2.16791,0 -3.70697,-0.43248 -4.61711,-1.29744 -0.89989,-0.8748 -1.34983,-2.35409 -1.34983,-4.43788 v -7.00328 h -2.73038 v -3.7744 h 2.73038 z m 36.21587,0 h 5.49143 v 4.68851 h 5.66019 v 3.7744 h -5.66019 v 7.00328 c 0,0.76668 0.15855,1.28763 0.47551,1.56284 0.31705,0.26539 0.94596,0.39809 1.88673,0.39809 h 2.82239 v 3.77439 h -4.70912 c -2.16797,0 -3.70697,-0.43248 -4.61711,-1.29744 -0.89989,-0.8748 -1.34983,-2.35409 -1.34983,-4.43788 v -7.00328 h -2.73039 v -3.7744 h 2.73039 z m -143.13019,4.29043 c 2.6997,0 4.8574,0.78142 6.47315,2.34425 1.62595,1.56284 2.43893,3.65154 2.43893,6.2661 v 1.50386 h -12.83892 c 0.13297,1.23848 0.59823,2.16734 1.39587,2.78658 0.79764,0.61923 1.91232,0.92885 3.34395,0.92885 1.15556,0 2.33669,-0.16218 3.54335,-0.48654 1.21693,-0.33419 2.46454,-0.83548 3.74277,-1.50386 v 4.06927 c -1.2987,0.4718 -2.59741,0.82565 -3.89616,1.06155 -1.2987,0.24573 -2.59741,0.3686 -3.89616,0.3686 -3.10873,0 -5.52724,-0.75685 -7.25544,-2.27054 -1.718,-1.52353 -2.57699,-3.65646 -2.57699,-6.39879 0,-2.69319 0.84365,-4.81138 2.53097,-6.35456 1.69752,-1.54318 4.02908,-2.31477 6.99468,-2.31477 z m 21.6743,0 c 0.89994,0 1.78448,0.0786 2.65369,0.2359 0.87946,0.14744 1.75377,0.37351 2.62298,0.67821 v 4.30518 c -0.74649,-0.49146 -1.49809,-0.85514 -2.25484,-1.09104 -0.74649,-0.2359 -1.52366,-0.35385 -2.33156,-0.35385 -1.53392,0 -2.73038,0.43249 -3.58938,1.29745 -0.84873,0.85514 -1.27315,2.0543 -1.27315,3.59748 0,1.54318 0.42442,2.74725 1.27315,3.61222 0.859,0.85514 2.05546,1.2827 3.58938,1.2827 0.85899,0 1.67197,-0.12286 2.43893,-0.36859 0.7772,-0.24573 1.49301,-0.60941 2.14747,-1.09104 v 4.31992 c -0.85899,0.30471 -1.73331,0.53078 -2.62298,0.67822 -0.87946,0.15726 -1.76401,0.2359 -2.65369,0.2359 -3.09852,0 -5.52211,-0.76176 -7.27078,-2.28528 -1.74867,-1.53336 -2.62301,-3.66137 -2.62301,-6.38405 0,-2.72268 0.87434,-4.84578 2.62301,-6.3693 1.74867,-1.53336 4.17226,-2.30003 7.27078,-2.30003 z m 36.24657,0 c 0.18407,0 0.38345,0.01 0.59819,0.0295 0.21474,0.01 0.5267,0.0393 0.93571,0.0885 l 0.0152,4.77698 c -0.48062,-0.21624 -0.96123,-0.37351 -1.44189,-0.4718 -0.47036,-0.10812 -0.94587,-0.16218 -1.42648,-0.16218 -1.41122,0 -2.50033,0.43739 -3.26728,1.3122 -0.75675,0.86496 -1.13514,2.10835 -1.13514,3.73016 v 7.60778 h -5.49143 v -16.51301 h 5.49143 v 2.71286 c 0.70561,-1.08121 1.51348,-1.86754 2.42363,-2.35901 0.92035,-0.50128 2.01971,-0.75193 3.29795,-0.75193 z m 12.45543,0 c 2.95537,0 5.26133,0.76667 6.91796,2.30003 1.66683,1.53335 2.50033,3.65645 2.50033,6.3693 0,2.71285 -0.8335,4.83595 -2.50033,6.3693 -1.65663,1.53335 -3.96259,2.30003 -6.91796,2.30003 -2.96559,0 -5.2869,-0.76668 -6.964,-2.30003 -1.66683,-1.53335 -2.50032,-3.65645 -2.50032,-6.3693 0,-2.71285 0.83349,-4.83595 2.50032,-6.3693 1.6771,-1.53336 3.99841,-2.30003 6.964,-2.30003 z m 58.3657,0 c 3.09852,0 5.33293,0.58975 6.70322,1.76925 1.38055,1.16967 2.0708,3.07653 2.0708,5.72057 v 9.42126 h -5.53746 v -2.44746 c -0.73628,1.00258 -1.56457,1.73485 -2.48492,2.19682 -0.92035,0.45214 -2.04013,0.67822 -3.35934,0.67822 -1.77931,0 -3.22625,-0.49638 -4.34098,-1.48912 -1.10442,-1.00258 -1.65663,-2.30003 -1.65663,-3.89235 0,-1.93635 0.69025,-3.35666 2.0708,-4.26095 1.39076,-0.90429 3.56893,-1.35642 6.53451,-1.35642 h 3.23656 v -0.41283 c 0,-0.83548 -0.34257,-1.44489 -1.02772,-1.82823 -0.68514,-0.39316 -1.75379,-0.58975 -3.20589,-0.58975 -1.17596,0 -2.27018,0.11304 -3.28259,0.33911 -1.01236,0.22607 -1.95317,0.56518 -2.82239,1.01732 v -4.02505 c 1.17602,-0.27521 2.35714,-0.48162 3.54331,-0.61924 1.18628,-0.14743 2.3725,-0.22115 3.55872,-0.22115 z m 35.49495,0 c 1.01236,0 2.0759,0.0737 3.19053,0.22115 1.11463,0.14744 2.32647,0.37843 3.63542,0.69296 v 4.01031 c -1.17597,-0.47181 -2.31111,-0.82566 -3.40532,-1.06156 -1.09417,-0.2359 -2.12699,-0.35385 -3.09852,-0.35385 -1.04303,0 -1.82024,0.12778 -2.33157,0.38334 -0.50103,0.24573 -0.75164,0.62906 -0.75164,1.15002 0,0.42264 0.18922,0.74701 0.56757,0.97308 0.38865,0.22607 1.07885,0.39317 2.0708,0.50129 l 0.96638,0.13269 c 2.81223,0.34402 4.70406,0.9092 5.6755,1.69553 0.97153,0.78634 1.4572,2.0199 1.4572,3.70069 0,1.75942 -0.67489,3.08144 -2.02477,3.96607 -1.34983,0.88462 -3.36435,1.32694 -6.04364,1.32694 -1.13509,0 -2.31111,-0.0885 -3.528,-0.26539 -1.20669,-0.1671 -2.44915,-0.42266 -3.72743,-0.76668 v -4.0103 c 1.09421,0.51112 2.21394,0.89445 3.35929,1.15001 1.15555,0.25556 2.32642,0.38334 3.51269,0.38334 1.07375,0 1.88162,-0.14252 2.42358,-0.42757 0.542,-0.28505 0.81298,-0.7077 0.81298,-1.26796 0,-0.4718 -0.18913,-0.82073 -0.56752,-1.04681 -0.36814,-0.2359 -1.10962,-0.41774 -2.22425,-0.54552 l -0.96633,-0.11795 c -2.444,-0.29487 -4.15696,-0.84039 -5.13865,-1.63655 -0.98174,-0.79617 -1.47256,-2.00515 -1.47256,-3.62696 0,-1.7496 0.6238,-3.04705 1.87137,-3.89236 1.24761,-0.84531 3.15986,-1.26796 5.73689,-1.26796 z m -238.37137,0.39808 h 5.49144 l 4.6171,11.20526 3.92684,-11.20526 h 5.49144 l -7.22477,18.07584 c -0.72605,1.83806 -1.57482,3.12076 -2.54631,3.84813 -0.96126,0.73718 -2.23441,1.10578 -3.81947,1.10578 h -3.17521 v -3.46479 h 1.71799 c 0.93058,0 1.60551,-0.14252 2.02478,-0.42757 0.42949,-0.28504 0.76184,-0.79616 0.99704,-1.53335 l 0.1534,-0.45705 z m 74.10374,3.11093 c -1.06354,0 -1.92761,0.28996 -2.59233,0.86988 -0.66471,0.5701 -1.07887,1.39575 -1.24247,2.47696 h 7.13273 c 0,-1.00258 -0.30678,-1.80857 -0.92035,-2.41798 -0.60336,-0.61924 -1.39587,-0.92886 -2.37758,-0.92886 z m 70.40698,0.26539 c -1.2169,0 -2.1475,0.42265 -2.79172,1.26797 -0.63407,0.83547 -0.95103,2.04446 -0.95103,3.62696 0,1.5825 0.31696,2.79639 0.95103,3.64171 0.64422,0.83547 1.57482,1.25321 2.79172,1.25321 1.19648,0 2.11172,-0.41774 2.74569,-1.25321 0.63406,-0.84532 0.95102,-2.05921 0.95102,-3.64171 0,-1.5825 -0.31696,-2.79149 -0.95102,-3.62696 -0.63397,-0.84532 -1.54921,-1.26797 -2.74569,-1.26797 z m -155.60097,0.059 c -1.17601,0 -2.08102,0.41773 -2.71504,1.25321 -0.6238,0.82565 -0.93569,2.0199 -0.93569,3.58274 0,1.56283 0.31189,2.762 0.93569,3.59747 0.63402,0.82565 1.53903,1.23848 2.71504,1.23848 1.17601,0 2.07079,-0.41283 2.68436,-1.23848 0.6238,-0.82565 0.93569,-2.02481 0.93569,-3.59747 0,-1.57267 -0.31189,-2.77183 -0.93569,-3.59748 -0.61357,-0.82565 -1.50835,-1.23847 -2.68436,-1.23847 z m 214.35017,5.64685 c -1.14534,0 -2.00946,0.18676 -2.59239,0.56027 -0.57262,0.37351 -0.85896,0.92393 -0.85896,1.6513 0,0.66838 0.2301,1.19424 0.6903,1.57758 0.47036,0.37351 1.11973,0.56026 1.94802,0.56026 1.03288,0 1.90209,-0.35385 2.6077,-1.06155 0.70556,-0.71752 1.05839,-1.61198 1.05839,-2.68336 v -0.6045 z"
       inkscape:path-effect="#path-effect49878" />
    <path
       style="fill:#ffff00;fill-opacity:1;stroke:none;stroke-width:0.667274px;stroke-linecap:butt;stroke-linejoin:miter;stroke-opacity:1"
       d="m 430.61241,429.67216 -109.24134,15.20103 81.91184,29.6296 -233.38245,0.003 153.8454,-12.68009 -88.89994,-33.1996 z"
       id="path51337"
       sodipodi:nodetypes="ccccccc" />
    <rect
       style="opacity:1;fill:#ffff00;fill-opacity:1;stroke:none"
       id="rect74327"
       width="381.33511"
       height="381.33511"
       x="100.3362"
       y="568.34448"
       ry="76.101997" />
    <path
       id="rect74327-2"
       style="fill:#000000;fill-opacity:1;stroke:none;stroke-width:0.950363"
       d="m 182.12584,577.8089 c -40.0678,0 -72.32616,32.25642 -72.32616,72.32421 v 217.75782 c 0,40.0678 32.25836,72.32422 72.32616,72.32422 h 217.75781 c 40.0678,0 72.32419,-32.25642 72.32419,-72.32422 V 650.13311 c 0,-40.06779 -32.25639,-72.32421 -72.32419,-72.32421 z m 197,56.57812 -27.10938,78.83789 47.98438,-45.08398 -79.80664,157.32226 44.0625,-108.04297 -52.78125,48.57422 z m -138.20312,22.86719 h 66.0039 l -44.61523,180.65625 h 120.10742 l -10.22656,45.72851 h -190.1836 z" />
    <g
       aria-label="L"
       id="text69073-7"
       style="font-size:410.835px;line-height:1.25;fill:#00ffff;stroke-width:4.27953"
       transform="translate(362.43733,-300.62127)" />
    <g
       aria-label="L"
       id="text69073-7-2"
       style="font-size:410.835px;line-height:1.25;fill:#00ffff;stroke-width:4.27953"
       transform="translate(379.04912,104.62628)">
      <path
         d="m 796.50047,605.38702 h 86.19522 l -58.98418,239.00274 h 156.84716 l -13.53774,60.49757 H 718.65936 Z"
         style="font-weight:bold;-inkscape-font-specification:'sans-serif Bold'"
         id="path75088-5-9" />
    </g>
    <path
       style="fill:#00ffff;fill-opacity:1;stroke:none;stroke-width:0.667274px;stroke-linecap:butt;stroke-linejoin:miter;stroke-opacity:1"
       d="m 1362.2152,682.12587 -35.8654,104.2996 63.4817,-59.64509 -105.5816,208.13424 58.2928,-142.93754 -69.827,64.26213 z"
       id="path51337-6-3-1"
       sodipodi:nodetypes="ccccccc" />
    <path
       id="use86156"
       style="fill:#00ffff;fill-opacity:1;stroke:none;stroke-width:0.504377px;stroke-linecap:butt;stroke-linejoin:miter;stroke-opacity:1"
       d="m 1271.0196,289.74314 -27.1098,78.8376 47.9843,-45.08431 -79.8067,157.32374 44.0622,-108.04311 -52.7806,48.57423 z m -138.2039,22.86658 h 66.0044 l -44.6145,180.65651 h 120.1065 l -10.2266,45.72869 h -190.1841 z" />
  </g>
</svg>
